<svg width="427" height="462" viewBox="0 0 427 462" fill="none" xmlns="http://www.w3.org/2000/svg">
<path d="M272.96 388.502L70.7713 38.0035C61.9803 22.7641 42.5103 17.5427 27.2838 26.3412C12.0574 35.1397 6.84038 54.6262 15.6314 69.8656L217.82 420.364C226.611 435.604 246.081 440.825 261.308 432.026C276.534 423.228 281.751 403.741 272.96 388.502Z" fill="#212121"/>
<path d="M246.435 376.824H7.6726C-9.90941 376.824 -24.1624 391.089 -24.1624 408.686C-24.1624 426.283 -9.90941 440.548 7.6726 440.548H246.435C264.017 440.548 278.271 426.283 278.271 408.686C278.271 391.089 264.017 376.824 246.435 376.824Z" fill="#212121"/>
<path d="M8.53939 38.3099L-198.388 397.024C-207.179 412.263 -201.962 431.75 -186.736 440.548C-171.51 449.346 -152.04 444.125 -143.249 428.886L63.6793 70.1719C72.4703 54.9325 67.2534 35.446 52.0269 26.6475C36.8004 17.8491 17.3304 23.0705 8.53939 38.3099Z" fill="#212121"/>
<path d="M165.599 31.5693L-42.9228 393.047C-53.9099 412.093 -47.39 436.446 -28.3606 447.442C-9.33124 458.438 15.0011 451.912 25.9882 432.867L234.511 71.3889C245.497 52.3435 238.977 27.9902 219.948 16.9943C200.919 5.99841 176.586 12.5238 165.599 31.5693Z" fill="#212121"/>
<path d="M165.599 31.5693L-42.9228 393.047C-53.9099 412.093 -47.39 436.446 -28.3606 447.442C-9.33124 458.438 15.0011 451.912 25.9882 432.868L234.511 71.3889C245.497 52.3435 238.977 27.9902 219.948 16.9943C200.919 5.99841 176.586 12.5238 165.599 31.5693Z" stroke="#121212" stroke-width="5"/>
<path d="M415.251 219.093L395.413 192.916C394.166 191.263 393.462 189.028 393.453 186.695V55.3273C393.437 45.2201 390.387 35.533 384.971 28.3861C379.554 21.2392 372.213 17.2147 364.553 17.1934H334.734C332.893 17.1934 331.07 17.6719 329.368 18.6017C327.668 19.5315 326.122 20.8943 324.82 22.6123C323.518 24.3303 322.485 26.3699 321.78 28.6146C321.075 30.8593 320.713 33.2651 320.713 35.6948C320.713 38.1244 321.075 40.5303 321.78 42.7749C322.485 45.0197 323.518 47.0593 324.82 48.7773C326.122 50.4953 327.668 51.8581 329.368 52.7878C331.07 53.7176 332.893 54.1962 334.734 54.1962H364.553C364.78 54.1962 364.998 54.3154 365.159 54.5275C365.32 54.7396 365.41 55.0273 365.41 55.3273V186.695C365.476 198.804 369.124 210.4 375.575 219.012L385.494 232.02L375.635 245.27C369.185 253.883 365.538 265.478 365.472 277.587V409.036C365.472 409.343 365.383 409.64 365.224 409.865C365.065 410.091 364.847 410.227 364.615 410.247H334.795C331.077 410.247 327.511 412.197 324.881 415.666C322.252 419.136 320.774 423.842 320.774 428.749C320.774 433.656 322.252 438.362 324.881 441.831C327.511 445.301 331.077 447.25 334.795 447.25H364.615C372.284 447.229 379.635 443.194 385.053 436.029C390.472 428.864 393.514 419.157 393.514 409.036V277.668C393.549 275.342 394.249 273.119 395.474 271.447L415.312 245.27C416.619 243.551 417.654 241.509 418.359 239.26C419.064 237.01 419.424 234.599 419.418 232.165C419.412 229.73 419.041 227.323 418.326 225.079C417.61 222.835 416.565 220.8 415.251 219.093Z" fill="#212121"/>
</svg>
