<svg width="465" height="386" viewBox="0 0 465 386" fill="none" xmlns="http://www.w3.org/2000/svg">
<g clip-path="url(#clip0_213_4866)">
<path d="M445.501 385.979H7.44516C6.46569 385.982 5.49531 385.786 4.58962 385.404C3.68392 385.022 2.8607 384.46 2.16714 383.75C1.47358 383.041 0.923306 382.199 0.547848 381.271C0.172389 380.343 -0.0208779 379.349 -0.020874 378.344C-0.0208779 377.34 0.172389 376.346 0.547848 375.418C0.923306 374.49 1.47358 373.648 2.16714 372.938C2.8607 372.229 3.68392 371.667 4.58962 371.285C5.49531 370.903 6.46569 370.707 7.44516 370.71H445.396C447.371 370.71 449.265 371.514 450.661 372.946C452.057 374.378 452.842 376.32 452.842 378.344C452.842 380.351 452.072 382.277 450.698 383.705C449.324 385.134 447.457 385.951 445.501 385.979Z" fill="#C7E2EA"/>
<path d="M168.966 10.3074C168.403 21.6629 166.526 43.0265 166.526 43.0265H191.948L190.092 7.50597L180.811 2.5874L168.966 10.3074Z" fill="#1F1B78"/>
<path d="M222.646 67.5768C220.435 70.5065 202.646 58.8517 195.535 53.313C188.423 47.7742 183.648 42.1286 186.359 38.5573C189.07 34.986 195.597 38.2579 202.584 44.0532C209.57 49.8486 224.878 64.647 222.646 67.5768Z" fill="#EED7BA"/>
<path d="M191.218 162.655C196.223 162.868 200.06 134.405 200.769 122.215C201.478 110.026 199.81 100.274 193.679 100.018C187.547 99.7611 185.128 109.342 184.878 121.552C184.628 133.763 186.192 162.483 191.218 162.655Z" fill="#EED7BA"/>
<path d="M188.882 223.623C193.324 223.795 196.14 183.313 196.494 174.245C196.849 165.178 196.494 155.598 191.572 155.405C186.651 155.213 185.524 164.729 185.149 173.775C184.774 182.821 184.357 223.431 188.882 223.623Z" fill="#EED7BA"/>
<path d="M167.798 162.655C172.803 163.125 178.038 134.854 179.352 122.772C180.665 110.689 179.477 100.809 173.366 100.232C167.256 99.6543 164.357 109.085 163.502 121.275C162.647 133.464 162.793 162.206 167.798 162.655Z" fill="#EED7BA"/>
<path d="M163.126 223.431C167.548 223.837 171.635 183.526 172.428 174.502C173.22 165.477 173.408 155.875 168.444 155.405C163.481 154.935 161.938 164.408 161.124 173.433C160.311 182.457 158.684 223.003 163.126 223.431Z" fill="#EED7BA"/>
<path d="M165.254 109.427H200.54C199.112 102.187 198.04 94.8788 197.328 87.5288C197.203 82.76 195.243 67.598 195.243 67.598C195.243 67.598 199.414 61.0328 199.414 57.5898C199.414 52.3932 190.801 38.1936 190.801 38.1936L178.58 34.3442L170.238 36.4827C164.962 37.5092 164.816 42.6416 164.816 48.1376C164.816 64.7538 171.614 75.9382 171.072 85.54C170.509 91.4851 165.254 109.427 165.254 109.427Z" fill="#EED7BA"/>
<path d="M174.534 23.6519V36.6112C176.909 37.7006 179.508 38.1778 182.104 38.0012C184.961 38.0012 185.587 36.6112 185.587 36.6112V32.548L174.534 23.6519Z" fill="#EED7BA"/>
<path d="M174.284 16.7875C174.284 17.1938 174.284 17.5574 174.284 17.9209C174.284 18.2845 174.284 18.1775 174.284 18.3272C174.013 24.871 174.701 29.9607 181.958 32.591C183.272 32.7407 187.902 33.7672 189.654 31.7998C191.727 28.716 192.991 25.1367 193.324 21.4066C193.324 19.2681 193.011 18.7977 193.011 17.6215C193.011 16.4453 193.491 13.8364 193.491 12.596C193.415 10.361 192.86 8.17056 191.864 6.18051C191.052 4.47735 189.763 3.06112 188.162 2.11267C186.561 1.16421 184.721 0.726565 182.876 0.855622C172.741 0.855622 174.034 9.75179 174.284 16.7875Z" fill="#EED7BA"/>
<path d="M176.807 15.0978C175.413 18.1147 173.868 21.0555 172.177 23.9084C172.177 23.9084 168.528 15.9746 168.966 10.3931C169.612 2.33095 174.784 3.35741 174.784 3.35741C178.476 -1.79638 187.297 -0.577425 191.614 4.93992C193.846 7.8269 195.013 11.8687 194.45 13.7719C194.2 14.6487 193.116 17.1935 193.116 17.1935L193.408 15.162C192.594 10.5642 184.92 10.885 180.645 7.20673C179.226 9.76328 177.945 12.3976 176.807 15.0978Z" fill="#1F1B78"/>
<path d="M174.451 17.2363C173.637 17.0438 171.739 16.3595 172.073 19.3748C172.699 24.4216 175.577 24.1009 175.577 24.1009C175.389 23.3952 175.139 22.3687 174.93 21.2139C175.702 20.722 174.93 20.166 174.93 19.5672C174.907 19.4042 174.907 19.2385 174.93 19.0754C174.805 18.3483 174.492 17.835 174.451 17.2363Z" fill="#EED7BA"/>
<path d="M174.638 19.0114C174.638 19.0114 173.721 18.1132 173.053 18.4768C172.386 18.8403 172.845 20.4442 173.387 21.4065C173.929 22.3688 174.534 22.4544 174.638 22.1764C174.743 21.8984 173.533 21.3424 173.971 20.8933C174.409 20.4442 174.826 20.3586 174.784 20.102C174.743 19.8454 174.638 19.0114 174.638 19.0114Z" fill="#DDBE9B"/>
<path d="M176.807 14.2427C176.374 16.2679 175.789 18.2555 175.055 20.1877L174.159 16.5736L176.807 14.2427Z" fill="#606BF1"/>
<path d="M184.336 32.9114C181.583 32.5311 179.008 31.3003 176.953 29.3828C177.107 29.9973 177.383 30.5726 177.763 31.073C178.143 31.5734 178.62 31.9881 179.164 32.2912C180.816 32.9141 182.588 33.1267 184.336 32.9114Z" fill="#DDBE9B"/>
<path d="M185.712 221.763L185.504 226.467C185.504 226.626 185.535 226.784 185.595 226.931C185.655 227.077 185.742 227.21 185.853 227.322C185.964 227.433 186.095 227.521 186.239 227.58C186.383 227.639 186.537 227.668 186.692 227.665H199.038C200.165 227.665 201.687 225.526 200.728 224.97C198.177 223.453 195.553 222.068 192.865 220.822C192.678 220.822 190.884 182.329 189.028 182.329C187.172 182.329 185.712 221.763 185.712 221.763Z" fill="#EED7BA"/>
<path d="M160.332 221.485V225.912C161.109 226.98 162.115 227.851 163.272 228.456C166.38 229.804 171.197 228.97 171.448 227.879C171.698 226.788 168.424 222.811 168.424 222.811C167.913 222.144 167.466 221.427 167.089 220.672C167.089 220.672 165.4 182.179 163.648 182.179C161.896 182.179 160.332 221.485 160.332 221.485Z" fill="#EED7BA"/>
<path d="M201.04 227.665H185.858C185.766 227.66 185.678 227.62 185.613 227.553C185.548 227.486 185.509 227.396 185.504 227.302V224.864C188.548 224.864 195.535 224.864 195.931 224.864C196.751 224.291 197.458 223.565 198.017 222.725C199.341 223.444 200.623 224.243 201.854 225.12C202.119 225.278 202.323 225.523 202.432 225.817C202.541 226.11 202.548 226.432 202.453 226.731C202.358 227.029 202.165 227.284 201.908 227.455C201.651 227.625 201.345 227.699 201.04 227.665Z" fill="#F08879"/>
<path d="M163.272 228.457C162.115 227.851 161.109 226.98 160.332 225.912V223.902L163.272 225.698C165.358 223.431 169.237 222.79 170.196 224.778C170.923 225.65 171.361 226.736 171.448 227.879C171.197 228.948 166.38 229.804 163.272 228.457Z" fill="#F08879"/>
<path d="M202 160.366C202 160.366 201.458 123.755 200.915 111.737C200.415 100.552 196.473 65.7161 196.473 65.7161C198.436 63.141 199.651 60.05 199.977 56.7986C199.17 53.3253 197.973 49.9597 196.411 46.769C195.869 45.5073 197.516 44.5022 197.516 44.5022C196.968 42.2118 195.912 40.082 194.43 38.2791C192.74 36.5469 185.587 36.5897 185.587 36.5897C189.758 37.8086 190.697 43.6682 190.092 44.1172C186.759 44.5038 183.394 44.5038 180.061 44.1172C178.601 43.7965 175.89 36.4614 172.031 35.8626C170.088 35.7501 168.16 36.2744 166.526 37.3596C163.648 39.1987 162.501 44.3952 162.501 44.3952C162.501 44.3952 173.116 44.1172 172.449 50.5328V51.0032C171.217 57.1686 169.451 63.2089 167.172 69.0522C168.86 73.6992 169.474 78.6841 168.966 83.6154C167.777 92.982 155.014 160.366 155.014 160.366H202Z" fill="#F08879"/>
<path d="M416.512 86.8018H120.708C109.605 86.8018 100.604 96.0315 100.604 107.417V319.856C100.604 331.241 109.605 340.471 120.708 340.471H416.512C427.616 340.471 436.617 331.241 436.617 319.856V107.417C436.617 96.0315 427.616 86.8018 416.512 86.8018Z" fill="#F9FBFC"/>
<path d="M402.707 171.337H275.909V174.203H402.707V171.337Z" fill="#EAEEEF"/>
<path d="M402.707 150.315H275.909V160.473H402.707V150.315Z" fill="#EAEEEF"/>
<path d="M402.707 177.945H275.909V180.81H402.707V177.945Z" fill="#EAEEEF"/>
<path d="M402.707 184.574H275.909V187.44H402.707V184.574Z" fill="#EAEEEF"/>
<path d="M402.707 191.182H275.909V194.048H402.707V191.182Z" fill="#EAEEEF"/>
<path d="M402.707 197.79H275.909V200.656H402.707V197.79Z" fill="#EAEEEF"/>
<path d="M402.707 204.419H275.909V207.285H402.707V204.419Z" fill="#EAEEEF"/>
<path d="M364.188 217.636H275.909V220.501H364.188V217.636Z" fill="#EAEEEF"/>
<path d="M402.707 211.027H275.909V213.893H402.707V211.027Z" fill="#EAEEEF"/>
<path d="M436.617 107.438V125.765H100.604V107.438C100.604 101.969 102.721 96.7231 106.491 92.8536C110.26 88.9841 115.374 86.8074 120.708 86.8018H416.492C419.135 86.8018 421.751 87.3355 424.193 88.3726C426.635 89.4097 428.853 90.9298 430.722 92.8461C432.591 94.7623 434.073 97.0373 435.085 99.5411C436.096 102.045 436.617 104.728 436.617 107.438Z" fill="#1C98F3"/>
<path d="M422.268 106.284C422.268 107.925 421.794 109.529 420.905 110.894C420.016 112.258 418.752 113.322 417.273 113.95C415.795 114.578 414.168 114.742 412.598 114.422C411.029 114.102 409.587 113.311 408.455 112.151C407.323 110.99 406.553 109.512 406.241 107.902C405.928 106.293 406.089 104.625 406.701 103.108C407.313 101.592 408.351 100.296 409.681 99.3847C411.012 98.473 412.576 97.9863 414.177 97.9863C416.323 97.9863 418.381 98.8605 419.898 100.417C421.416 101.973 422.268 104.083 422.268 106.284Z" fill="#1F1B78"/>
<path d="M389.089 106.284C389.089 107.925 388.614 109.529 387.725 110.894C386.836 112.258 385.572 113.322 384.093 113.95C382.615 114.578 380.988 114.742 379.418 114.422C377.849 114.102 376.407 113.311 375.275 112.151C374.144 110.99 373.373 109.512 373.061 107.902C372.748 106.293 372.909 104.625 373.521 103.108C374.134 101.592 375.171 100.296 376.501 99.3847C377.832 98.473 379.396 97.9863 380.997 97.9863C383.143 97.9863 385.201 98.8605 386.719 100.417C388.236 101.973 389.089 104.083 389.089 106.284Z" fill="#FBD15B"/>
<path d="M355.721 106.284C355.721 107.925 355.246 109.529 354.357 110.894C353.468 112.258 352.204 113.322 350.726 113.95C349.247 114.578 347.62 114.742 346.05 114.422C344.481 114.102 343.039 113.311 341.907 112.151C340.776 110.99 340.005 109.512 339.693 107.902C339.381 106.293 339.541 104.625 340.153 103.108C340.766 101.592 341.803 100.296 343.134 99.3847C344.464 98.473 346.029 97.9863 347.629 97.9863C349.775 97.9863 351.833 98.8605 353.351 100.417C354.868 101.973 355.721 104.083 355.721 106.284Z" fill="#EC827D"/>
<path d="M459.932 242.699H359.454C356.943 242.699 354.907 244.786 354.907 247.361V308.116C354.907 310.69 356.943 312.778 359.454 312.778H459.932C462.443 312.778 464.479 310.69 464.479 308.116V247.361C464.479 244.786 462.443 242.699 459.932 242.699Z" fill="#EAEEEF"/>
<path d="M459.995 313.291H359.454C358.11 313.291 356.821 312.743 355.87 311.769C354.92 310.794 354.386 309.472 354.386 308.094V247.361C354.386 245.982 354.92 244.661 355.87 243.686C356.821 242.712 358.11 242.164 359.454 242.164H459.995C461.339 242.164 462.628 242.712 463.578 243.686C464.529 244.661 465.063 245.982 465.063 247.361V308.073C465.065 308.757 464.936 309.435 464.683 310.068C464.429 310.701 464.056 311.276 463.586 311.761C463.115 312.246 462.555 312.631 461.939 312.893C461.323 313.156 460.662 313.291 459.995 313.291ZM359.516 243.233C358.449 243.233 357.425 243.668 356.67 244.442C355.915 245.216 355.491 246.266 355.491 247.361V308.073C355.491 309.167 355.915 310.217 356.67 310.991C357.425 311.765 358.449 312.2 359.516 312.2H459.995C461.053 312.189 462.064 311.748 462.807 310.975C463.549 310.201 463.963 309.158 463.957 308.073V247.339C463.96 246.796 463.858 246.259 463.657 245.756C463.455 245.254 463.159 244.798 462.785 244.414C462.41 244.031 461.965 243.727 461.476 243.52C460.986 243.314 460.462 243.209 459.932 243.212L359.516 243.233Z" fill="#EAEEEF"/>
<path d="M459.932 236.583H359.454C356.943 236.583 354.907 238.67 354.907 241.244V301.999C354.907 304.574 356.943 306.661 359.454 306.661H459.932C462.443 306.661 464.479 304.574 464.479 301.999V241.244C464.479 238.67 462.443 236.583 459.932 236.583Z" fill="#F9FBFC"/>
<path d="M459.995 307.175H359.454C358.11 307.175 356.821 306.627 355.87 305.653C354.92 304.678 354.386 303.357 354.386 301.978V241.245C354.386 239.865 354.919 238.541 355.869 237.563C356.819 236.585 358.108 236.033 359.454 236.027H459.995C461.341 236.033 462.63 236.585 463.58 237.563C464.529 238.541 465.063 239.865 465.063 241.245V301.978C465.063 303.357 464.529 304.678 463.578 305.653C462.628 306.627 461.339 307.175 459.995 307.175ZM359.516 237.096C358.447 237.102 357.423 237.541 356.669 238.319C355.915 239.096 355.491 240.148 355.491 241.245V301.978C355.497 303.071 355.923 304.118 356.676 304.891C357.43 305.663 358.451 306.1 359.516 306.106H459.995C461.062 306.106 462.086 305.671 462.841 304.897C463.596 304.123 464.02 303.073 464.02 301.978V241.245C464.023 240.701 463.921 240.162 463.719 239.659C463.518 239.156 463.222 238.698 462.848 238.313C462.474 237.927 462.03 237.621 461.54 237.412C461.05 237.204 460.525 237.096 459.995 237.096H359.516Z" fill="#EAEEEF"/>
<path d="M452.946 247.019H366.461V249.884H452.946V247.019Z" fill="#EAEEEF"/>
<path d="M452.946 253.648H366.461V256.514H452.946V253.648Z" fill="#EAEEEF"/>
<path d="M452.946 260.256H366.461V263.121H452.946V260.256Z" fill="#EAEEEF"/>
<path d="M452.946 266.864H366.461V269.729H452.946V266.864Z" fill="#EAEEEF"/>
<path d="M452.946 273.493H366.461V276.359H452.946V273.493Z" fill="#EAEEEF"/>
<path d="M452.946 280.101H366.461V282.967H452.946V280.101Z" fill="#EAEEEF"/>
<path d="M426.69 293.338H366.461V296.204H426.69V293.338Z" fill="#EAEEEF"/>
<path d="M452.946 286.709H366.461V289.575H452.946V286.709Z" fill="#EAEEEF"/>
<path d="M111.594 253.498H11.1156C8.60468 253.498 6.56921 255.585 6.56921 258.16V318.915C6.56921 321.49 8.60468 323.577 11.1156 323.577H111.594C114.105 323.577 116.14 321.49 116.14 318.915V258.16C116.14 255.585 114.105 253.498 111.594 253.498Z" fill="#EAEEEF"/>
<path d="M111.594 324.111H11.1364C10.4692 324.114 9.80793 323.982 9.19068 323.722C8.57343 323.462 8.01231 323.08 7.53952 322.597C7.06673 322.114 6.69157 321.54 6.43559 320.908C6.17961 320.277 6.04785 319.599 6.04785 318.915V258.16C6.04785 257.476 6.17961 256.798 6.43559 256.166C6.69157 255.534 7.06673 254.961 7.53952 254.478C8.01231 253.995 8.57343 253.613 9.19068 253.353C9.80793 253.093 10.4692 252.961 11.1364 252.963H111.594C112.261 252.961 112.923 253.093 113.54 253.353C114.157 253.613 114.718 253.995 115.191 254.478C115.664 254.961 116.039 255.534 116.295 256.166C116.551 256.798 116.683 257.476 116.683 258.16V318.915C116.683 319.599 116.551 320.277 116.295 320.908C116.039 321.54 115.664 322.114 115.191 322.597C114.718 323.08 114.157 323.462 113.54 323.722C112.923 323.982 112.261 324.114 111.594 324.111ZM11.1364 254.033C10.067 254.033 9.04107 254.467 8.28293 255.24C7.52478 256.014 7.09611 257.063 7.09059 258.16V318.915C7.09611 320.011 7.52478 321.061 8.28293 321.835C9.04107 322.608 10.067 323.042 11.1364 323.042H111.594C112.664 323.042 113.689 322.608 114.448 321.835C115.206 321.061 115.634 320.011 115.64 318.915V258.16C115.634 257.063 115.206 256.014 114.448 255.24C113.689 254.467 112.664 254.033 111.594 254.033H11.1364Z" fill="#EAEEEF"/>
<path d="M111.594 247.382H11.1156C8.60468 247.382 6.56921 249.47 6.56921 252.044V312.799C6.56921 315.374 8.60468 317.461 11.1156 317.461H111.594C114.105 317.461 116.14 315.374 116.14 312.799V252.044C116.14 249.47 114.105 247.382 111.594 247.382Z" fill="#F9FBFC"/>
<path d="M111.594 317.974H11.1364C10.4692 317.977 9.80793 317.845 9.19068 317.585C8.57343 317.325 8.01231 316.943 7.53952 316.46C7.06673 315.977 6.69157 315.403 6.43559 314.771C6.17961 314.14 6.04785 313.462 6.04785 312.778V252.044C6.04785 251.36 6.17961 250.683 6.43559 250.051C6.69157 249.419 7.06673 248.845 7.53952 248.362C8.01231 247.879 8.57343 247.497 9.19068 247.237C9.80793 246.977 10.4692 246.845 11.1364 246.848H111.594C112.261 246.845 112.923 246.977 113.54 247.237C114.157 247.497 114.718 247.879 115.191 248.362C115.664 248.845 116.039 249.419 116.295 250.051C116.551 250.683 116.683 251.36 116.683 252.044V312.778C116.683 313.462 116.551 314.14 116.295 314.771C116.039 315.403 115.664 315.977 115.191 316.46C114.718 316.943 114.157 317.325 113.54 317.585C112.923 317.845 112.261 317.977 111.594 317.974ZM11.1364 247.917C10.6061 247.914 10.0805 248.019 9.58973 248.225C9.09899 248.431 8.6528 248.735 8.27683 249.118C7.90087 249.502 7.60252 249.958 7.39895 250.46C7.19537 250.962 7.09059 251.5 7.09059 252.044V312.778C7.09059 313.322 7.19537 313.86 7.39895 314.362C7.60252 314.864 7.90087 315.32 8.27683 315.704C8.6528 316.087 9.09899 316.391 9.58973 316.597C10.0805 316.803 10.6061 316.908 11.1364 316.905H111.594C112.124 316.908 112.65 316.803 113.141 316.597C113.632 316.391 114.078 316.087 114.454 315.704C114.83 315.32 115.128 314.864 115.332 314.362C115.535 313.86 115.64 313.322 115.64 312.778V252.044C115.64 251.5 115.535 250.962 115.332 250.46C115.128 249.958 114.83 249.502 114.454 249.118C114.078 248.735 113.632 248.431 113.141 248.225C112.65 248.019 112.124 247.914 111.594 247.917H11.1364Z" fill="#EAEEEF"/>
<path d="M15.9956 309.399H106.735C106.735 309.399 104.837 293.681 96.8289 294.429C88.8206 295.177 86.2763 298.963 82.3556 299.433C78.4349 299.904 79.8948 284.613 71.5529 283.544C63.2109 282.475 63.5863 288.527 56.7251 289.66C52.1946 290.33 47.5741 289.905 43.232 288.42C40.354 287.842 39.2487 298.065 34.1601 298.749C29.0716 299.433 27.0695 297.295 24.4209 296.439C21.7724 295.584 15.9956 309.399 15.9956 309.399Z" fill="#EAEEEF"/>
<path d="M107.319 309.933H15.224L15.516 309.185C16.9132 305.827 21.7724 294.878 24.567 295.862C25.2827 296.117 25.9796 296.424 26.6525 296.781C28.8969 298.065 31.4943 298.547 34.0351 298.15C36.5793 297.808 38.0809 294.75 39.3948 292.034C40.7086 289.318 41.6054 287.479 43.2946 287.757C43.8994 287.757 44.5459 288.056 45.2341 288.249C48.9163 289.391 52.8056 289.647 56.6 288.997C58.8266 288.587 60.8783 287.491 62.481 285.854C63.6334 284.617 65.0688 283.696 66.6568 283.173C68.2447 282.65 69.9349 282.543 71.5737 282.86C76.7874 283.523 78.3516 289.168 79.6237 293.702C80.3953 296.482 81.0418 298.834 82.2514 298.749C83.7903 298.455 85.2617 297.867 86.5892 297.017C89.6982 295.172 93.1664 294.055 96.7455 293.745C105.087 292.996 107.173 308.586 107.173 309.249L107.319 309.933ZM16.7881 308.864H106.13C105.671 306.041 103.482 294.365 96.8706 294.899C93.4273 295.192 90.092 296.274 87.1106 298.065C85.6646 298.973 84.0663 299.596 82.3974 299.904C80.3119 300.16 79.5611 297.337 78.6644 294.087C77.4756 289.81 76.0158 284.592 71.4903 284.015C69.9876 283.706 68.4329 283.795 66.9731 284.274C65.5134 284.753 64.197 285.606 63.1484 286.752C61.4078 288.52 59.1807 289.699 56.7668 290.131C52.8339 290.811 48.8006 290.548 44.9838 289.361C44.2956 289.168 43.67 288.997 43.086 288.89C42.1684 288.698 41.2717 290.558 40.3332 292.504C38.9568 295.306 37.2676 298.792 34.1811 299.219C31.4395 299.646 28.6372 299.127 26.2145 297.744C25.5393 297.41 24.8425 297.124 24.129 296.888C23.0029 296.482 19.4575 302.619 16.7881 308.864Z" fill="#EAEEEF"/>
<path d="M288.38 118.452H187.902C185.391 118.452 183.356 120.539 183.356 123.114V183.869C183.356 186.443 185.391 188.53 187.902 188.53H288.38C290.891 188.53 292.927 186.443 292.927 183.869V123.114C292.927 120.539 290.891 118.452 288.38 118.452Z" fill="#EAEEEF"/>
<path d="M288.38 189.044H187.902C187.236 189.044 186.577 188.909 185.963 188.648C185.348 188.387 184.789 188.004 184.319 187.522C183.848 187.039 183.475 186.466 183.22 185.836C182.965 185.205 182.834 184.529 182.834 183.847V123.114C182.834 122.431 182.965 121.755 183.22 121.125C183.475 120.494 183.848 119.922 184.319 119.439C184.789 118.956 185.348 118.574 185.963 118.313C186.577 118.051 187.236 117.917 187.902 117.917H288.38C289.725 117.917 291.014 118.464 291.964 119.439C292.914 120.414 293.448 121.735 293.448 123.114V183.847C293.448 185.225 292.914 186.547 291.964 187.522C291.014 188.496 289.725 189.044 288.38 189.044ZM187.902 118.986C187.373 118.983 186.848 119.088 186.358 119.295C185.869 119.501 185.424 119.805 185.05 120.189C184.675 120.573 184.379 121.029 184.178 121.531C183.976 122.033 183.874 122.571 183.877 123.114V183.847C183.874 184.39 183.976 184.928 184.178 185.43C184.379 185.932 184.675 186.388 185.05 186.772C185.424 187.156 185.869 187.46 186.358 187.666C186.848 187.872 187.373 187.977 187.902 187.974H288.38C289.448 187.974 290.472 187.54 291.227 186.766C291.981 185.992 292.405 184.942 292.405 183.847V123.114C292.405 122.572 292.301 122.035 292.099 121.534C291.897 121.033 291.6 120.578 291.227 120.195C290.853 119.812 290.409 119.508 289.921 119.3C289.432 119.093 288.909 118.986 288.38 118.986H187.902Z" fill="#EAEEEF"/>
<path d="M288.38 112.314H187.902C185.391 112.314 183.356 114.402 183.356 116.976V177.731C183.356 180.306 185.391 182.393 187.902 182.393H288.38C290.891 182.393 292.927 180.306 292.927 177.731V116.976C292.927 114.402 290.891 112.314 288.38 112.314Z" fill="#F9FBFC"/>
<path d="M288.38 182.928H187.902C187.236 182.928 186.577 182.793 185.963 182.532C185.348 182.271 184.789 181.888 184.319 181.406C183.848 180.923 183.475 180.35 183.22 179.72C182.965 179.089 182.834 178.414 182.834 177.731V116.976C182.834 116.294 182.965 115.618 183.22 114.988C183.475 114.357 183.848 113.784 184.319 113.302C184.789 112.819 185.348 112.436 185.963 112.175C186.577 111.914 187.236 111.78 187.902 111.78H288.38C289.725 111.78 291.014 112.327 291.964 113.302C292.914 114.276 293.448 115.598 293.448 116.976V177.731C293.448 178.414 293.317 179.089 293.062 179.72C292.808 180.35 292.435 180.923 291.964 181.406C291.493 181.888 290.935 182.271 290.32 182.532C289.705 182.793 289.046 182.928 288.38 182.928ZM187.902 112.849C186.834 112.849 185.811 113.284 185.056 114.058C184.301 114.832 183.877 115.882 183.877 116.976V177.731C183.877 178.826 184.301 179.876 185.056 180.65C185.811 181.424 186.834 181.859 187.902 181.859H288.38C289.446 181.853 290.467 181.416 291.221 180.644C291.974 179.871 292.4 178.824 292.405 177.731V116.976C292.4 115.883 291.974 114.837 291.221 114.064C290.467 113.291 289.446 112.855 288.38 112.849H187.902Z" fill="#EAEEEF"/>
<path d="M285.544 122.771H246.379V171.615H285.544V122.771Z" fill="#EAEEEF"/>
<path d="M238.12 122.771H194.221V125.637H238.12V122.771Z" fill="#EAEEEF"/>
<path d="M238.12 129.379H194.221V132.245H238.12V129.379Z" fill="#EAEEEF"/>
<path d="M238.12 136.009H194.221V138.874H238.12V136.009Z" fill="#EAEEEF"/>
<path d="M238.12 142.617H194.221V145.482H238.12V142.617Z" fill="#EAEEEF"/>
<path d="M238.12 149.225H194.221V152.09H238.12V149.225Z" fill="#EAEEEF"/>
<path d="M238.12 155.854H194.221V158.72H238.12V155.854Z" fill="#EAEEEF"/>
<path d="M224.794 169.07H194.221V171.936H224.794V169.07Z" fill="#EAEEEF"/>
<path d="M238.12 162.462H194.221V165.328H238.12V162.462Z" fill="#EAEEEF"/>
<path d="M262.666 127.155L251.092 147.706H274.241L262.666 127.155Z" fill="#EAEEEF"/>
<path d="M275.596 148.519H249.736L262.666 125.552L275.596 148.519ZM252.448 146.915H272.885L262.666 128.76L252.448 146.915Z" fill="#F9FBFC"/>
<path d="M271.926 131.454L260.352 152.005H283.5L271.926 131.454Z" fill="#EAEEEF"/>
<path d="M284.814 152.818H259.017L271.926 129.85L284.814 152.818ZM261.665 151.214H282.103L271.884 133.058L261.665 151.214Z" fill="#F9FBFC"/>
<path d="M280.956 156.816C280.956 158.648 280.427 160.438 279.434 161.961C278.442 163.484 277.032 164.67 275.382 165.371C273.732 166.072 271.916 166.255 270.164 165.898C268.413 165.541 266.804 164.659 265.541 163.364C264.278 162.069 263.418 160.419 263.069 158.623C262.721 156.827 262.9 154.965 263.583 153.273C264.267 151.581 265.424 150.135 266.909 149.117C268.394 148.1 270.14 147.557 271.926 147.557C274.321 147.557 276.618 148.532 278.311 150.269C280.005 152.005 280.956 154.361 280.956 156.816Z" fill="#EAEEEF"/>
<path d="M271.926 166.932C269.988 166.927 268.095 166.334 266.486 165.227C264.877 164.12 263.624 162.549 262.885 160.712C262.147 158.875 261.955 156.855 262.336 154.907C262.717 152.958 263.652 151.169 265.023 149.766C266.395 148.362 268.142 147.407 270.042 147.021C271.943 146.635 273.913 146.835 275.703 147.597C277.493 148.358 279.022 149.646 280.098 151.299C281.174 152.951 281.749 154.894 281.749 156.881C281.743 159.548 280.706 162.105 278.864 163.989C277.023 165.873 274.528 166.932 271.926 166.932ZM271.926 148.433C270.276 148.433 268.663 148.935 267.292 149.875C265.92 150.815 264.851 152.151 264.219 153.714C263.588 155.277 263.423 156.997 263.744 158.656C264.066 160.316 264.861 161.84 266.027 163.036C267.194 164.232 268.68 165.047 270.299 165.377C271.917 165.707 273.594 165.538 275.118 164.89C276.643 164.243 277.945 163.147 278.862 161.74C279.779 160.333 280.268 158.679 280.268 156.987C280.276 155.859 280.067 154.74 279.651 153.694C279.236 152.649 278.622 151.698 277.847 150.897C277.071 150.096 276.149 149.46 275.133 149.027C274.117 148.593 273.027 148.369 271.926 148.369V148.433Z" fill="#F9FBFC"/>
<path d="M374.97 210.728H274.491C271.98 210.728 269.945 212.815 269.945 215.39V276.145C269.945 278.72 271.98 280.807 274.491 280.807H374.97C377.481 280.807 379.516 278.72 379.516 276.145V215.39C379.516 212.815 377.481 210.728 374.97 210.728Z" fill="#EAEEEF"/>
<path d="M374.97 281.32H274.491C273.147 281.32 271.858 280.772 270.908 279.798C269.957 278.823 269.423 277.502 269.423 276.123V215.39C269.423 214.012 269.957 212.69 270.908 211.715C271.858 210.741 273.147 210.193 274.491 210.193H374.97C376.314 210.193 377.603 210.741 378.553 211.715C379.504 212.69 380.037 214.012 380.037 215.39V276.123C380.037 277.502 379.504 278.823 378.553 279.798C377.603 280.772 376.314 281.32 374.97 281.32ZM274.491 211.263C273.424 211.263 272.4 211.697 271.645 212.471C270.89 213.246 270.466 214.295 270.466 215.39V276.123C270.466 277.218 270.89 278.268 271.645 279.042C272.4 279.816 273.424 280.251 274.491 280.251H374.97C375.499 280.254 376.024 280.149 376.513 279.942C377.003 279.736 377.448 279.432 377.822 279.048C378.196 278.664 378.493 278.208 378.694 277.706C378.895 277.204 378.997 276.666 378.995 276.123V215.39C378.997 214.847 378.895 214.309 378.694 213.807C378.493 213.305 378.196 212.849 377.822 212.465C377.448 212.081 377.003 211.777 376.513 211.571C376.024 211.365 375.499 211.26 374.97 211.263H274.491Z" fill="#EAEEEF"/>
<path d="M374.97 204.612H274.491C271.98 204.612 269.945 206.7 269.945 209.274V270.029C269.945 272.604 271.98 274.691 274.491 274.691H374.97C377.481 274.691 379.516 272.604 379.516 270.029V209.274C379.516 206.7 377.481 204.612 374.97 204.612Z" fill="#F9FBFC"/>
<path d="M374.97 275.204H274.491C273.147 275.204 271.858 274.657 270.908 273.682C269.957 272.708 269.424 271.386 269.424 270.008V209.274C269.421 208.59 269.55 207.912 269.803 207.279C270.057 206.646 270.43 206.071 270.9 205.586C271.371 205.101 271.931 204.716 272.547 204.454C273.163 204.191 273.824 204.056 274.491 204.056H374.97C375.637 204.056 376.298 204.191 376.914 204.454C377.53 204.716 378.09 205.101 378.561 205.586C379.031 206.071 379.404 206.646 379.658 207.279C379.911 207.912 380.04 208.59 380.038 209.274V270.008C380.038 271.386 379.504 272.708 378.553 273.682C377.603 274.657 376.314 275.204 374.97 275.204ZM274.491 205.125C273.422 205.131 272.398 205.571 271.644 206.348C270.89 207.125 270.466 208.177 270.466 209.274V270.008C270.472 271.101 270.898 272.147 271.651 272.92C272.405 273.693 273.425 274.129 274.491 274.135H374.97C376.037 274.135 377.061 273.7 377.816 272.926C378.571 272.152 378.995 271.102 378.995 270.008V209.274C378.998 208.73 378.895 208.191 378.694 207.688C378.493 207.185 378.197 206.727 377.823 206.342C377.449 205.956 377.005 205.65 376.515 205.442C376.025 205.233 375.5 205.125 374.97 205.125H274.491Z" fill="#EAEEEF"/>
<path d="M153.366 118.644H52.8878C50.3769 118.644 48.3414 120.731 48.3414 123.306V184.061C48.3414 186.636 50.3769 188.723 52.8878 188.723H153.366C155.877 188.723 157.913 186.636 157.913 184.061V123.306C157.913 120.731 155.877 118.644 153.366 118.644Z" fill="#F9FBFC"/>
<path d="M153.429 189.257H52.8878C51.5437 189.257 50.2548 188.71 49.3044 187.735C48.354 186.761 47.8201 185.439 47.8201 184.061V123.306C47.8201 121.928 48.354 120.606 49.3044 119.631C50.2548 118.657 51.5437 118.109 52.8878 118.109H153.429C154.773 118.109 156.062 118.657 157.012 119.631C157.963 120.606 158.497 121.928 158.497 123.306V184.039C158.499 184.724 158.37 185.402 158.117 186.035C157.863 186.668 157.491 187.243 157.02 187.728C156.549 188.213 155.989 188.597 155.373 188.86C154.757 189.122 154.096 189.257 153.429 189.257ZM52.9504 119.179C51.8846 119.184 50.864 119.621 50.1103 120.394C49.3567 121.167 48.9309 122.213 48.9254 123.306V184.039C48.9309 185.132 49.3567 186.179 50.1103 186.952C50.864 187.725 51.8846 188.161 52.9504 188.167H153.429C154.484 188.144 155.488 187.7 156.229 186.929C156.969 186.158 157.386 185.121 157.391 184.039V123.306C157.386 122.213 156.96 121.167 156.206 120.394C155.453 119.621 154.432 119.184 153.366 119.179H52.9504Z" fill="#EAEEEF"/>
<path d="M145.9 161.136H60.3539V164.002H145.9V161.136Z" fill="#EAEEEF"/>
<path d="M119.915 174.352H60.3539V177.218H119.915V174.352Z" fill="#EAEEEF"/>
<path d="M145.9 167.744H60.3539V170.61H145.9V167.744Z" fill="#EAEEEF"/>
<path d="M146.213 128.631H59.1443V156.816H146.213V128.631Z" fill="#EAEEEF"/>
<path d="M84.316 151.663H68.2787V135.218H84.316V151.663ZM70.3642 149.524H82.2306V137.356H70.3642V149.524Z" fill="#F9FBFC"/>
<path d="M85.3171 153.266C83.3231 153.271 81.3727 152.668 79.7131 151.535C78.0534 150.401 76.7591 148.788 75.9941 146.9C75.2292 145.012 75.0279 142.933 75.4159 140.928C75.8039 138.922 76.7637 137.08 78.1737 135.634C79.5837 134.188 81.3804 133.204 83.3362 132.806C85.2921 132.408 87.3192 132.614 89.1606 133.399C91.002 134.183 92.575 135.51 93.6802 137.212C94.7855 138.914 95.3733 140.914 95.3691 142.959C95.3636 145.691 94.3028 148.309 92.4189 150.241C90.5349 152.173 87.9814 153.261 85.3171 153.266ZM85.3171 134.768C83.7365 134.764 82.1901 135.241 80.8739 136.138C79.5576 137.036 78.5306 138.313 77.9229 139.81C77.3151 141.306 77.154 142.953 77.4598 144.543C77.7656 146.134 78.5247 147.595 79.6409 148.743C80.7571 149.89 82.1803 150.672 83.7303 150.99C85.2803 151.308 86.8874 151.147 88.3481 150.528C89.8088 149.909 91.0575 148.859 91.9361 147.511C92.8147 146.164 93.2837 144.58 93.2837 142.959C93.2564 140.807 92.4063 138.752 90.9164 137.236C89.4265 135.72 87.4158 134.865 85.3171 134.854V134.768Z" fill="#F9FBFC"/>
<path d="M118.33 148.198H100.562L109.446 132.416L118.33 148.198ZM104.17 146.06H114.702L109.446 136.693L104.17 146.06Z" fill="#F9FBFC"/>
<path d="M229.445 158.185H128.966C126.455 158.185 124.42 160.272 124.42 162.847V223.602C124.42 226.177 126.455 228.264 128.966 228.264H229.445C231.956 228.264 233.991 226.177 233.991 223.602V162.847C233.991 160.272 231.956 158.185 229.445 158.185Z" fill="#EAEEEF"/>
<path d="M229.445 228.798H128.966C127.622 228.798 126.333 228.251 125.383 227.276C124.432 226.302 123.899 224.98 123.899 223.602V162.847C123.899 161.469 124.432 160.147 125.383 159.172C126.333 158.198 127.622 157.65 128.966 157.65H229.445C230.789 157.65 232.078 158.198 233.028 159.172C233.979 160.147 234.513 161.469 234.513 162.847V223.602C234.513 224.284 234.381 224.96 234.127 225.59C233.872 226.221 233.499 226.794 233.028 227.276C232.558 227.759 231.999 228.142 231.384 228.403C230.769 228.664 230.11 228.798 229.445 228.798ZM128.966 158.72C127.899 158.72 126.875 159.154 126.12 159.928C125.365 160.703 124.941 161.752 124.941 162.847V223.602C124.941 224.696 125.365 225.746 126.12 226.52C126.875 227.294 127.899 227.729 128.966 227.729H229.445C230.511 227.724 231.531 227.287 232.285 226.514C233.039 225.741 233.464 224.695 233.47 223.602V162.847C233.464 161.754 233.039 160.707 232.285 159.935C231.531 159.162 230.511 158.725 229.445 158.72H128.966Z" fill="#EAEEEF"/>
<path d="M229.445 152.39H128.966C126.455 152.39 124.42 154.477 124.42 157.052V217.806C124.42 220.381 126.455 222.468 128.966 222.468H229.445C231.956 222.468 233.991 220.381 233.991 217.806V157.052C233.991 154.477 231.956 152.39 229.445 152.39Z" fill="#F9FBFC"/>
<path d="M229.445 223.003H128.966C127.622 223.003 126.333 222.456 125.383 221.481C124.432 220.506 123.899 219.185 123.899 217.806V157.052C123.899 155.673 124.432 154.352 125.383 153.377C126.333 152.402 127.622 151.855 128.966 151.855H229.445C230.789 151.855 232.078 152.402 233.028 153.377C233.979 154.352 234.513 155.673 234.513 157.052V217.806C234.513 218.489 234.381 219.165 234.127 219.795C233.872 220.426 233.499 220.998 233.028 221.481C232.558 221.964 231.999 222.346 231.384 222.607C230.769 222.869 230.11 223.003 229.445 223.003ZM128.966 152.924C127.899 152.924 126.875 153.359 126.12 154.133C125.365 154.907 124.941 155.957 124.941 157.052V217.806C124.941 218.348 125.045 218.885 125.248 219.386C125.45 219.887 125.746 220.342 126.12 220.725C126.494 221.108 126.938 221.412 127.426 221.62C127.914 221.827 128.438 221.934 128.966 221.934H229.445C230.511 221.928 231.531 221.492 232.285 220.719C233.039 219.946 233.464 218.899 233.47 217.806V157.052C233.464 155.959 233.039 154.912 232.285 154.139C231.531 153.367 230.511 152.93 229.445 152.924H128.966Z" fill="#EAEEEF"/>
<path d="M161.771 162.12H133.387V164.986H161.771V162.12Z" fill="#EAEEEF"/>
<path d="M161.771 168.75H133.387V171.615H161.771V168.75Z" fill="#EAEEEF"/>
<path d="M161.771 175.357H133.387V178.223H161.771V175.357Z" fill="#EAEEEF"/>
<path d="M161.771 181.965H133.387V184.831H161.771V181.965Z" fill="#EAEEEF"/>
<path d="M161.771 188.595H133.387V191.46H161.771V188.595Z" fill="#EAEEEF"/>
<path d="M161.771 195.203H133.387V198.068H161.771V195.203Z" fill="#EAEEEF"/>
<path d="M153.158 208.44H133.387V211.306H153.158V208.44Z" fill="#EAEEEF"/>
<path d="M161.771 201.811H133.387V204.676H161.771V201.811Z" fill="#EAEEEF"/>
<path d="M222.333 161.97H166.13V211.284H222.333V161.97Z" fill="#EAEEEF"/>
<path d="M175.493 168.215C175.497 168.736 175.351 169.246 175.071 169.682C174.792 170.117 174.393 170.457 173.924 170.66C173.456 170.862 172.94 170.917 172.441 170.818C171.942 170.719 171.483 170.47 171.122 170.103C170.761 169.736 170.515 169.268 170.414 168.757C170.313 168.246 170.363 167.716 170.556 167.234C170.75 166.752 171.079 166.34 171.501 166.05C171.923 165.76 172.42 165.606 172.928 165.606C173.264 165.603 173.597 165.668 173.908 165.798C174.219 165.928 174.502 166.12 174.741 166.362C174.979 166.605 175.169 166.893 175.298 167.211C175.427 167.529 175.493 167.87 175.493 168.215Z" fill="#EC827D"/>
<path d="M184.002 168.215C184.002 168.731 183.853 169.235 183.573 169.664C183.294 170.093 182.896 170.428 182.432 170.625C181.967 170.823 181.455 170.874 180.962 170.774C180.468 170.673 180.015 170.425 179.659 170.06C179.303 169.695 179.061 169.23 178.962 168.724C178.864 168.218 178.915 167.693 179.107 167.217C179.3 166.74 179.626 166.332 180.044 166.046C180.463 165.759 180.955 165.606 181.458 165.606C182.133 165.606 182.78 165.881 183.257 166.37C183.734 166.859 184.002 167.523 184.002 168.215Z" fill="#EC827D"/>
<path d="M192.532 168.215C192.536 168.736 192.389 169.246 192.11 169.682C191.83 170.117 191.431 170.457 190.963 170.66C190.494 170.862 189.978 170.917 189.479 170.818C188.98 170.719 188.521 170.47 188.16 170.103C187.799 169.736 187.553 169.268 187.452 168.757C187.352 168.246 187.401 167.716 187.595 167.234C187.788 166.752 188.117 166.34 188.539 166.05C188.962 165.76 189.458 165.606 189.967 165.606C190.302 165.603 190.636 165.668 190.947 165.798C191.258 165.928 191.541 166.12 191.779 166.362C192.018 166.605 192.207 166.893 192.336 167.211C192.465 167.529 192.532 167.87 192.532 168.215Z" fill="#EC827D"/>
<path d="M201.04 168.215C201.04 168.731 200.891 169.235 200.612 169.664C200.332 170.093 199.935 170.428 199.47 170.625C199.005 170.823 198.493 170.874 198 170.774C197.506 170.673 197.053 170.425 196.697 170.06C196.341 169.695 196.099 169.23 196.001 168.724C195.903 168.218 195.953 167.693 196.146 167.217C196.338 166.74 196.664 166.332 197.083 166.046C197.501 165.759 197.993 165.606 198.496 165.606C199.171 165.606 199.818 165.881 200.295 166.37C200.772 166.859 201.04 167.523 201.04 168.215Z" fill="#F9FBFC"/>
<path d="M209.57 168.215C209.574 168.736 209.427 169.246 209.148 169.682C208.869 170.117 208.469 170.457 208.001 170.66C207.533 170.862 207.016 170.917 206.517 170.818C206.019 170.719 205.559 170.47 205.199 170.103C204.838 169.736 204.591 169.268 204.491 168.757C204.39 168.246 204.44 167.716 204.633 167.234C204.827 166.752 205.155 166.34 205.578 166.05C206 165.76 206.497 165.606 207.005 165.606C207.341 165.603 207.674 165.668 207.985 165.798C208.296 165.928 208.579 166.12 208.818 166.362C209.056 166.605 209.245 166.893 209.374 167.211C209.504 167.529 209.57 167.87 209.57 168.215Z" fill="#F9FBFC"/>
<path d="M218.079 168.215C218.079 168.907 217.811 169.57 217.334 170.06C216.856 170.549 216.209 170.824 215.535 170.824C214.86 170.824 214.213 170.549 213.735 170.06C213.258 169.57 212.99 168.907 212.99 168.215C212.99 167.523 213.258 166.859 213.735 166.37C214.213 165.881 214.86 165.606 215.535 165.606C216.209 165.606 216.856 165.881 217.334 166.37C217.811 166.859 218.079 167.523 218.079 168.215Z" fill="#F9FBFC"/>
<path d="M175.493 177.432C175.493 177.952 175.343 178.46 175.061 178.893C174.779 179.326 174.379 179.663 173.91 179.862C173.441 180.061 172.925 180.113 172.428 180.011C171.93 179.91 171.473 179.659 171.114 179.292C170.756 178.924 170.511 178.455 170.412 177.945C170.313 177.435 170.364 176.906 170.558 176.425C170.752 175.944 171.081 175.534 171.503 175.245C171.925 174.956 172.421 174.801 172.928 174.801C173.609 174.801 174.261 175.078 174.742 175.572C175.223 176.065 175.493 176.734 175.493 177.432Z" fill="#FBD15B"/>
<path d="M184.002 177.432C183.998 177.947 183.845 178.449 183.563 178.875C183.281 179.301 182.882 179.633 182.417 179.827C181.952 180.021 181.441 180.07 180.949 179.966C180.457 179.863 180.005 179.613 179.651 179.248C179.298 178.882 179.057 178.417 178.961 177.911C178.864 177.406 178.916 176.882 179.109 176.407C179.302 175.931 179.628 175.525 180.046 175.24C180.464 174.954 180.955 174.801 181.458 174.801C181.794 174.801 182.126 174.869 182.436 175.002C182.746 175.134 183.028 175.328 183.264 175.573C183.501 175.818 183.688 176.108 183.814 176.427C183.941 176.746 184.005 177.087 184.002 177.432Z" fill="#FBD15B"/>
<path d="M192.532 177.432C192.532 177.952 192.381 178.46 192.099 178.893C191.818 179.326 191.417 179.663 190.948 179.862C190.479 180.061 189.964 180.113 189.466 180.011C188.969 179.91 188.511 179.659 188.153 179.292C187.794 178.924 187.55 178.455 187.451 177.945C187.352 177.435 187.402 176.906 187.597 176.425C187.791 175.944 188.12 175.534 188.541 175.245C188.963 174.956 189.459 174.801 189.967 174.801C190.647 174.801 191.299 175.078 191.78 175.572C192.261 176.065 192.532 176.734 192.532 177.432Z" fill="#FBD15B"/>
<path d="M201.041 177.432C201.036 177.947 200.884 178.449 200.602 178.875C200.32 179.301 199.921 179.633 199.456 179.827C198.99 180.021 198.479 180.07 197.987 179.966C197.495 179.863 197.044 179.613 196.69 179.248C196.336 178.882 196.096 178.417 195.999 177.911C195.903 177.406 195.955 176.882 196.148 176.407C196.341 175.931 196.667 175.525 197.085 175.24C197.503 174.954 197.994 174.801 198.496 174.801C198.832 174.801 199.165 174.869 199.475 175.002C199.785 175.134 200.066 175.328 200.303 175.573C200.539 175.818 200.726 176.108 200.853 176.427C200.979 176.746 201.043 177.087 201.041 177.432Z" fill="#FBD15B"/>
<path d="M209.57 177.432C209.57 177.952 209.42 178.46 209.138 178.893C208.856 179.326 208.455 179.663 207.987 179.862C207.518 180.061 207.002 180.113 206.505 180.011C206.007 179.91 205.55 179.659 205.191 179.292C204.832 178.924 204.588 178.455 204.489 177.945C204.39 177.435 204.441 176.906 204.635 176.425C204.829 175.944 205.158 175.534 205.58 175.245C206.002 174.956 206.498 174.801 207.005 174.801C207.685 174.801 208.338 175.078 208.819 175.572C209.3 176.065 209.57 176.734 209.57 177.432Z" fill="#F9FBFC"/>
<path d="M218.079 177.432C218.075 177.947 217.922 178.449 217.64 178.875C217.358 179.301 216.959 179.633 216.494 179.827C216.029 180.021 215.518 180.07 215.026 179.966C214.533 179.863 214.082 179.613 213.728 179.248C213.375 178.882 213.134 178.417 213.038 177.911C212.941 177.406 212.993 176.882 213.186 176.407C213.379 175.931 213.705 175.525 214.123 175.24C214.541 174.954 215.032 174.801 215.535 174.801C215.87 174.801 216.203 174.869 216.513 175.002C216.823 175.134 217.105 175.328 217.341 175.573C217.578 175.818 217.765 176.108 217.891 176.427C218.018 176.746 218.082 177.087 218.079 177.432Z" fill="#F9FBFC"/>
<path d="M175.493 186.627C175.497 187.148 175.351 187.659 175.071 188.094C174.792 188.53 174.393 188.87 173.924 189.072C173.456 189.275 172.94 189.33 172.441 189.231C171.942 189.132 171.483 188.883 171.122 188.516C170.761 188.149 170.515 187.68 170.414 187.17C170.313 186.659 170.363 186.129 170.556 185.647C170.75 185.165 171.079 184.753 171.501 184.463C171.923 184.173 172.42 184.018 172.928 184.018C173.264 184.015 173.597 184.081 173.908 184.211C174.219 184.34 174.502 184.532 174.741 184.775C174.979 185.017 175.169 185.306 175.298 185.624C175.427 185.942 175.493 186.283 175.493 186.627Z" fill="#1C98F3"/>
<path d="M184.002 186.627C184.002 187.143 183.853 187.647 183.573 188.077C183.294 188.506 182.896 188.84 182.432 189.037C181.967 189.235 181.455 189.287 180.962 189.186C180.468 189.085 180.015 188.837 179.659 188.472C179.303 188.107 179.061 187.642 178.962 187.136C178.864 186.63 178.915 186.105 179.107 185.629C179.3 185.152 179.626 184.744 180.044 184.458C180.463 184.171 180.955 184.018 181.458 184.018C182.133 184.018 182.78 184.293 183.257 184.782C183.734 185.271 184.002 185.935 184.002 186.627Z" fill="#1C98F3"/>
<path d="M192.532 186.627C192.536 187.148 192.389 187.659 192.11 188.094C191.83 188.53 191.431 188.87 190.963 189.072C190.494 189.275 189.978 189.33 189.479 189.231C188.98 189.132 188.521 188.883 188.16 188.516C187.799 188.149 187.553 187.68 187.452 187.17C187.352 186.659 187.401 186.129 187.595 185.647C187.788 185.165 188.117 184.753 188.539 184.463C188.962 184.173 189.458 184.018 189.967 184.018C190.302 184.015 190.636 184.081 190.947 184.211C191.258 184.34 191.541 184.532 191.779 184.775C192.018 185.017 192.207 185.306 192.336 185.624C192.465 185.942 192.532 186.283 192.532 186.627Z" fill="#1C98F3"/>
<path d="M201.04 186.627C201.04 187.143 200.891 187.647 200.612 188.077C200.332 188.506 199.935 188.84 199.47 189.037C199.005 189.235 198.493 189.287 198 189.186C197.506 189.085 197.053 188.837 196.697 188.472C196.341 188.107 196.099 187.642 196.001 187.136C195.903 186.63 195.953 186.105 196.146 185.629C196.338 185.152 196.664 184.744 197.083 184.458C197.501 184.171 197.993 184.018 198.496 184.018C199.171 184.018 199.818 184.293 200.295 184.782C200.772 185.271 201.04 185.935 201.04 186.627Z" fill="#1C98F3"/>
<path d="M209.57 186.627C209.574 187.148 209.427 187.659 209.148 188.094C208.869 188.53 208.469 188.87 208.001 189.072C207.533 189.275 207.016 189.33 206.517 189.231C206.019 189.132 205.559 188.883 205.199 188.516C204.838 188.149 204.591 187.68 204.491 187.17C204.39 186.659 204.44 186.129 204.633 185.647C204.827 185.165 205.155 184.753 205.578 184.463C206 184.173 206.497 184.018 207.005 184.018C207.341 184.015 207.674 184.081 207.985 184.211C208.296 184.34 208.579 184.532 208.818 184.775C209.056 185.017 209.245 185.306 209.374 185.624C209.504 185.942 209.57 186.283 209.57 186.627Z" fill="#1C98F3"/>
<path d="M218.079 186.627C218.079 187.319 217.811 187.983 217.334 188.472C216.856 188.961 216.209 189.236 215.535 189.236C214.86 189.236 214.213 188.961 213.735 188.472C213.258 187.983 212.99 187.319 212.99 186.627C212.99 185.935 213.258 185.271 213.735 184.782C214.213 184.293 214.86 184.018 215.535 184.018C216.209 184.018 216.856 184.293 217.334 184.782C217.811 185.271 218.079 185.935 218.079 186.627Z" fill="#F9FBFC"/>
<path d="M175.493 195.844C175.493 196.364 175.343 196.873 175.061 197.306C174.779 197.738 174.379 198.075 173.91 198.274C173.441 198.473 172.925 198.526 172.428 198.424C171.93 198.323 171.473 198.072 171.114 197.704C170.756 197.336 170.511 196.868 170.412 196.357C170.313 195.847 170.364 195.318 170.558 194.838C170.752 194.357 171.081 193.946 171.503 193.657C171.925 193.368 172.421 193.214 172.928 193.214C173.609 193.214 174.261 193.491 174.742 193.984C175.223 194.478 175.493 195.147 175.493 195.844Z" fill="#56548C"/>
<path d="M184.002 195.844C183.998 196.359 183.845 196.862 183.563 197.288C183.281 197.714 182.882 198.045 182.417 198.239C181.952 198.434 181.441 198.482 180.949 198.379C180.457 198.276 180.005 198.026 179.651 197.66C179.298 197.294 179.057 196.83 178.961 196.324C178.864 195.819 178.916 195.295 179.109 194.82C179.302 194.344 179.628 193.938 180.046 193.652C180.464 193.366 180.955 193.214 181.458 193.214C181.794 193.214 182.126 193.282 182.436 193.415C182.746 193.547 183.028 193.741 183.264 193.986C183.501 194.23 183.688 194.52 183.814 194.839C183.941 195.158 184.005 195.5 184.002 195.844Z" fill="#56548C"/>
<path d="M192.532 195.844C192.532 196.364 192.381 196.873 192.099 197.306C191.818 197.738 191.417 198.075 190.948 198.274C190.479 198.473 189.964 198.526 189.466 198.424C188.969 198.323 188.511 198.072 188.153 197.704C187.794 197.336 187.55 196.868 187.451 196.357C187.352 195.847 187.402 195.318 187.597 194.838C187.791 194.357 188.12 193.946 188.541 193.657C188.963 193.368 189.459 193.214 189.967 193.214C190.647 193.214 191.299 193.491 191.78 193.984C192.261 194.478 192.532 195.147 192.532 195.844Z" fill="#56548C"/>
<path d="M201.041 195.844C201.036 196.359 200.884 196.862 200.602 197.288C200.32 197.714 199.921 198.045 199.456 198.239C198.99 198.434 198.479 198.482 197.987 198.379C197.495 198.276 197.044 198.026 196.69 197.66C196.336 197.294 196.096 196.83 195.999 196.324C195.903 195.819 195.955 195.295 196.148 194.82C196.341 194.344 196.667 193.938 197.085 193.652C197.503 193.366 197.994 193.214 198.496 193.214C198.832 193.214 199.165 193.282 199.475 193.415C199.785 193.547 200.066 193.741 200.303 193.986C200.539 194.23 200.726 194.52 200.853 194.839C200.979 195.158 201.043 195.5 201.041 195.844Z" fill="#56548C"/>
<path d="M209.57 195.844C209.57 196.364 209.42 196.873 209.138 197.306C208.856 197.738 208.455 198.075 207.987 198.274C207.518 198.473 207.002 198.526 206.505 198.424C206.007 198.323 205.55 198.072 205.191 197.704C204.832 197.336 204.588 196.868 204.489 196.357C204.39 195.847 204.441 195.318 204.635 194.838C204.829 194.357 205.158 193.946 205.58 193.657C206.002 193.368 206.498 193.214 207.005 193.214C207.685 193.214 208.338 193.491 208.819 193.984C209.3 194.478 209.57 195.147 209.57 195.844Z" fill="#F9FBFC"/>
<path d="M218.079 195.844C218.075 196.359 217.922 196.862 217.64 197.288C217.358 197.714 216.959 198.045 216.494 198.239C216.029 198.434 215.518 198.482 215.026 198.379C214.533 198.276 214.082 198.026 213.728 197.66C213.375 197.294 213.134 196.83 213.038 196.324C212.941 195.819 212.993 195.295 213.186 194.82C213.379 194.344 213.705 193.938 214.123 193.652C214.541 193.366 215.032 193.214 215.535 193.214C215.87 193.214 216.203 193.282 216.513 193.415C216.823 193.547 217.105 193.741 217.341 193.986C217.578 194.23 217.765 194.52 217.891 194.839C218.018 195.158 218.082 195.5 218.079 195.844Z" fill="#F9FBFC"/>
<path d="M175.493 205.04C175.497 205.561 175.351 206.071 175.071 206.507C174.792 206.942 174.393 207.283 173.924 207.485C173.456 207.687 172.94 207.742 172.441 207.643C171.942 207.544 171.483 207.296 171.122 206.929C170.761 206.562 170.515 206.093 170.414 205.582C170.313 205.071 170.363 204.541 170.556 204.059C170.75 203.578 171.079 203.165 171.501 202.875C171.923 202.586 172.42 202.431 172.928 202.431C173.605 202.431 174.254 202.705 174.735 203.193C175.215 203.682 175.488 204.346 175.493 205.04Z" fill="#BEE1F4"/>
<path d="M184.002 205.04C184.002 205.556 183.853 206.06 183.573 206.489C183.294 206.918 182.896 207.253 182.432 207.45C181.967 207.647 181.455 207.699 180.962 207.598C180.468 207.498 180.015 207.249 179.659 206.884C179.303 206.52 179.061 206.055 178.962 205.549C178.864 205.043 178.915 204.518 179.107 204.041C179.3 203.564 179.626 203.157 180.044 202.87C180.463 202.584 180.955 202.431 181.458 202.431C182.131 202.436 182.775 202.713 183.251 203.201C183.727 203.689 183.997 204.349 184.002 205.04Z" fill="#BEE1F4"/>
<path d="M192.532 205.04C192.536 205.561 192.389 206.071 192.11 206.507C191.83 206.942 191.431 207.283 190.963 207.485C190.494 207.687 189.978 207.742 189.479 207.643C188.98 207.544 188.521 207.296 188.16 206.929C187.799 206.562 187.553 206.093 187.452 205.582C187.352 205.071 187.401 204.541 187.595 204.059C187.788 203.578 188.117 203.165 188.539 202.875C188.962 202.586 189.458 202.431 189.967 202.431C190.643 202.431 191.293 202.705 191.773 203.193C192.254 203.682 192.526 204.346 192.532 205.04Z" fill="#BEE1F4"/>
<path d="M201.04 205.04C201.04 205.556 200.891 206.06 200.612 206.489C200.332 206.918 199.935 207.253 199.47 207.45C199.005 207.647 198.493 207.699 198 207.598C197.506 207.498 197.053 207.249 196.697 206.884C196.341 206.52 196.099 206.055 196.001 205.549C195.903 205.043 195.953 204.518 196.146 204.041C196.338 203.564 196.664 203.157 197.083 202.87C197.501 202.584 197.993 202.431 198.496 202.431C199.169 202.436 199.813 202.713 200.289 203.201C200.765 203.689 201.035 204.349 201.04 205.04Z" fill="#F9FBFC"/>
<path d="M209.57 205.04C209.574 205.561 209.427 206.071 209.148 206.507C208.869 206.942 208.469 207.283 208.001 207.485C207.533 207.687 207.016 207.742 206.517 207.643C206.019 207.544 205.559 207.296 205.199 206.929C204.838 206.562 204.591 206.093 204.491 205.582C204.39 205.071 204.44 204.541 204.633 204.059C204.827 203.578 205.155 203.165 205.578 202.875C206 202.586 206.497 202.431 207.005 202.431C207.682 202.431 208.331 202.705 208.811 203.193C209.292 203.682 209.565 204.346 209.57 205.04Z" fill="#F9FBFC"/>
<path d="M218.079 205.04C218.079 205.556 217.93 206.06 217.65 206.489C217.37 206.918 216.973 207.253 216.508 207.45C216.043 207.647 215.532 207.699 215.038 207.598C214.545 207.498 214.091 207.249 213.735 206.884C213.38 206.52 213.137 206.055 213.039 205.549C212.941 205.043 212.991 204.518 213.184 204.041C213.376 203.564 213.703 203.157 214.121 202.87C214.539 202.584 215.031 202.431 215.535 202.431C216.209 202.431 216.856 202.706 217.334 203.195C217.811 203.684 218.079 204.348 218.079 205.04Z" fill="#F9FBFC"/>
<path d="M229.445 233.524H128.966C126.455 233.524 124.42 235.612 124.42 238.186V298.941C124.42 301.516 126.455 303.603 128.966 303.603H229.445C231.956 303.603 233.991 301.516 233.991 298.941V238.186C233.991 235.612 231.956 233.524 229.445 233.524Z" fill="#F9FBFC"/>
<path d="M229.445 304.117H128.966C127.622 304.117 126.333 303.569 125.383 302.595C124.432 301.62 123.899 300.299 123.899 298.92V238.187C123.899 236.809 124.432 235.487 125.383 234.512C126.333 233.538 127.622 232.99 128.966 232.99H229.445C230.789 232.99 232.078 233.538 233.028 234.512C233.979 235.487 234.513 236.809 234.513 238.187V298.92C234.513 299.603 234.381 300.278 234.127 300.909C233.872 301.539 233.499 302.112 233.028 302.595C232.558 303.077 231.999 303.46 231.384 303.721C230.769 303.982 230.11 304.117 229.445 304.117ZM128.966 234.059C128.437 234.057 127.912 234.161 127.423 234.368C126.933 234.574 126.488 234.878 126.114 235.262C125.74 235.646 125.443 236.102 125.242 236.604C125.041 237.106 124.939 237.644 124.941 238.187V298.92C124.939 299.463 125.041 300.001 125.242 300.503C125.443 301.005 125.74 301.461 126.114 301.845C126.488 302.229 126.933 302.533 127.423 302.739C127.912 302.946 128.437 303.05 128.966 303.048H229.445C230.512 303.048 231.536 302.613 232.291 301.839C233.046 301.065 233.47 300.015 233.47 298.92V238.187C233.47 237.092 233.046 236.042 232.291 235.268C231.536 234.494 230.512 234.059 229.445 234.059H128.966Z" fill="#EAEEEF"/>
<path d="M377.869 230.167C374.302 229.226 377.723 207.435 379.85 198.304C381.977 189.172 385.251 182.35 389.61 183.505C393.968 184.66 393.614 192.23 391.174 201.297C388.734 210.365 381.435 231.087 377.869 230.167Z" fill="#EED7BA"/>
<path d="M345.856 199.009C347.942 196.486 366.711 212.076 371.821 216.673C376.93 221.271 381.998 226.489 379.579 229.333C377.159 232.177 371.424 227.687 366.315 223.089C361.205 218.491 343.708 201.554 345.856 199.009Z" fill="#EED7BA"/>
<path d="M350.57 202.089C350.82 198.133 343.959 198.475 341.623 198.689C337.827 199.031 333.656 202.303 333.761 203.821C333.865 205.339 342.457 204.056 342.77 204.377C343.083 204.698 338.974 205.724 339.204 207.136C339.433 208.547 345.085 207.884 347.233 206.751C348.189 206.421 349.023 205.796 349.621 204.961C350.218 204.127 350.549 203.124 350.57 202.089Z" fill="#EED7BA"/>
<path d="M398.139 370.966L398.348 375.671C398.348 375.83 398.317 375.988 398.257 376.134C398.197 376.281 398.109 376.414 397.999 376.526C397.888 376.637 397.757 376.725 397.613 376.784C397.468 376.843 397.314 376.871 397.159 376.869H384.917C384.676 376.866 384.441 376.786 384.245 376.641C384.05 376.495 383.903 376.291 383.825 376.057C383.747 375.822 383.742 375.568 383.811 375.331C383.88 375.093 384.018 374.883 384.208 374.73C386.242 373.064 388.593 371.855 391.111 371.18C391.32 371.18 393.072 331.468 394.928 331.447C396.784 331.425 398.139 370.966 398.139 370.966Z" fill="#EED7BA"/>
<path d="M425.084 370.688V375.115C424.801 376.15 424.165 377.046 423.29 377.638C420.183 378.986 414.218 378.194 413.968 377.082C413.718 375.97 415.407 373.554 416.742 371.843C417.618 370.753 418.327 369.94 418.327 369.94C418.327 369.94 420.016 331.447 421.768 331.447C423.52 331.447 425.084 370.688 425.084 370.688Z" fill="#EED7BA"/>
<path d="M395.095 310.211C389.923 310.211 387.149 280.828 386.899 268.254C386.649 255.68 388.776 245.757 395.095 245.757C401.414 245.757 403.437 255.701 403.27 268.254C403.103 280.807 400.246 310.211 395.095 310.211Z" fill="#EED7BA"/>
<path d="M395.095 372.677C390.507 372.677 389.255 331.19 389.255 321.866C389.255 312.542 389.943 302.62 395.095 302.62C400.246 302.62 400.913 312.457 400.913 321.866C400.913 331.276 399.662 372.677 395.095 372.677Z" fill="#EED7BA"/>
<path d="M417.242 310.211C412.091 310.703 406.711 281.684 405.376 269.195C404.041 256.706 405.23 246.612 411.507 246.035C417.785 245.457 420.767 255.145 421.664 267.676C422.56 280.208 422.456 309.719 417.242 310.211Z" fill="#EED7BA"/>
<path d="M422.039 372.421C417.493 372.848 413.301 331.639 412.467 322.358C411.632 313.077 411.466 303.112 416.638 302.705C421.81 302.299 423.332 311.965 424.145 321.246C424.959 330.527 426.627 371.993 422.039 372.421Z" fill="#EED7BA"/>
<path d="M421.247 255.444H387.17L385.773 199.244L388.296 183.377L404.813 178.18L414.344 180.041C416.967 180.546 419.326 182.001 420.991 184.14C422.656 186.279 423.516 188.96 423.416 191.696L419.954 231.472L421.247 255.444Z" fill="#EED7BA"/>
<path d="M430.902 227.815C427.378 228.97 418.89 208.568 415.908 199.523C412.925 190.477 412.175 182.949 416.492 181.516C420.809 180.084 424.5 186.777 427.148 195.844C429.797 204.912 434.448 226.66 430.902 227.815Z" fill="#EED7BA"/>
<path d="M408.379 170.653V181.901C405.948 183.026 403.283 183.519 400.621 183.334C397.681 183.334 397.013 181.901 397.013 181.901V177.624L408.379 170.653Z" fill="#EED7BA"/>
<path d="M409.672 162.227C409.672 162.626 409.672 163.011 409.672 163.382V163.788C409.943 170.503 405.751 177.688 399.432 178.651H399.287H399.078C397.722 178.822 392.821 179.228 391.049 177.218C388.766 174.489 387.38 171.092 387.086 167.509C387.159 165.874 387.333 164.245 387.608 162.633C387.608 161.692 387.128 158.762 387.107 157.479C387.02 155.956 387.235 154.431 387.74 152.996C388.245 151.561 389.03 150.246 390.047 149.132C391.063 148.018 392.29 147.127 393.652 146.515C395.015 145.902 396.485 145.58 397.973 145.568C408.379 145.547 409.943 155.02 409.672 162.227Z" fill="#EED7BA"/>
<path d="M406.606 162.312C407.441 162.12 409.401 161.414 409.026 164.451C408.421 169.583 405.459 169.263 405.459 169.263C405.647 168.536 405.897 167.509 406.127 166.311C405.334 165.82 406.356 165.178 406.377 164.579C406.4 164.459 406.4 164.336 406.377 164.216C406.489 163.586 406.566 162.951 406.606 162.312Z" fill="#EED7BA"/>
<path d="M406.419 164.173C406.419 164.173 407.357 163.253 408.045 163.617C408.734 163.98 408.254 165.755 407.691 166.632C407.128 167.509 406.544 167.68 406.419 167.423C406.294 167.167 407.545 166.568 407.107 166.097C406.669 165.627 406.231 165.563 406.273 165.285C406.314 165.007 406.419 164.173 406.419 164.173Z" fill="#DDBE9B"/>
<path d="M395.491 178.822C398.661 178.972 402.894 175.807 404.062 174.352C404.954 172.767 405.555 171.028 405.835 169.22C406.16 169.233 406.483 169.159 406.772 169.005C407.061 168.851 407.306 168.623 407.482 168.343C407.482 168.343 407.482 169.969 406.773 170.482C406.064 170.995 405.752 171.145 405.626 171.53C405.501 171.915 404.771 177.026 402.144 178.458C400.016 179.281 397.692 179.408 395.491 178.822Z" fill="#DDBE9B"/>
<path d="M398.348 371.822V376.248C398.343 376.457 398.26 376.655 398.116 376.802C397.973 376.949 397.779 377.034 397.576 377.04H383.729C383.466 377.04 383.21 376.955 382.997 376.798C382.784 376.64 382.625 376.418 382.542 376.162C382.459 375.907 382.456 375.631 382.534 375.374C382.613 375.117 382.768 374.892 382.978 374.73C385.392 373.086 387.939 371.655 390.59 370.453C391.153 370.966 392.008 372.592 393.009 372.741C394.814 372.616 396.602 372.308 398.348 371.822Z" fill="#56548C"/>
<path d="M425.084 371.266V375.115C424.801 376.15 424.165 377.046 423.29 377.638C420.183 378.986 414.218 378.194 413.968 377.082C413.718 375.97 415.407 373.554 416.742 371.843C418.21 371.436 419.757 371.436 421.226 371.843C421.885 372.262 422.584 372.613 423.311 372.891C423.956 372.415 424.551 371.87 425.084 371.266Z" fill="#56548C"/>
<path d="M404.083 262.116V264.811L416.679 368.036H426.439L422.06 262.116H404.083Z" fill="#1F1B78"/>
<path d="M386.315 262.116L390.402 368.036H400.016L404.083 264.811V262.116H386.315Z" fill="#1F1B78"/>
<path d="M380.329 194.732C378.98 199.476 377.901 204.295 377.097 209.167C377.097 209.167 378.494 211.562 384.563 212.696C384.563 205.061 384.563 198.988 384.563 196.871C384.856 192.167 385.943 187.55 387.775 183.227C384.792 184.275 382.352 187.846 380.329 194.732Z" fill="#606BF1"/>
<path d="M417.535 180.554C413.155 181.024 410.861 185.152 412.342 191.524C414.402 198.707 416.903 205.75 419.828 212.61L420.892 212.396C429.672 210.536 430.902 207.67 430.902 207.67C428.442 196.678 424.271 184.724 420.85 182.158C419.837 181.442 418.717 180.901 417.535 180.554Z" fill="#606BF1"/>
<path d="M397.013 180.554L387.858 183.141C386.026 187.465 384.939 192.081 384.646 196.785C384.521 198.924 384.521 204.976 384.646 212.61C384.855 232.199 385.481 262.116 385.481 262.116H422.873C422.873 262.116 421.226 239.855 420.934 233.033C420.929 227.017 421.326 221.008 422.122 215.048L420.934 212.396L419.87 212.61C416.945 205.75 414.444 198.707 412.383 191.524C410.903 185.109 413.197 181.024 417.576 180.554C415.186 179.827 412.723 179.382 410.235 179.228C410.235 179.228 408.65 184.382 401.539 184.446C394.427 184.51 397.013 180.554 397.013 180.554Z" fill="#606BF1"/>
<path d="M408.379 170.931C408.617 171.092 408.897 171.178 409.182 171.178C409.467 171.178 409.747 171.092 409.985 170.931C410.141 170.775 410.266 170.589 410.351 170.383C410.436 170.178 410.479 169.957 410.479 169.733C410.479 169.51 410.436 169.289 410.351 169.083C410.266 168.877 410.141 168.691 409.985 168.536C410.521 168.46 411.021 168.219 411.421 167.846C411.82 167.472 412.099 166.982 412.221 166.442C412.343 165.902 412.303 165.336 412.104 164.82C411.906 164.305 411.56 163.863 411.111 163.553C411.754 163.257 412.298 162.774 412.675 162.163C413.038 161.427 413.185 160.6 413.1 159.781C413.015 158.961 412.701 158.184 412.196 157.544C412.574 157.229 412.821 156.778 412.884 156.282C412.881 155.877 412.766 155.481 412.551 155.14C412.337 154.799 412.033 154.528 411.674 154.357C411.956 154.081 412.181 153.749 412.335 153.382C412.489 153.014 412.569 152.619 412.571 152.219C411.536 151.721 410.704 150.865 410.224 149.801C409.743 148.737 409.644 147.534 409.943 146.402C409.429 145.769 408.702 145.358 407.905 145.251C407.109 145.144 406.303 145.349 405.647 145.825C405.654 145.335 405.521 144.854 405.266 144.44C405.01 144.026 404.643 143.697 404.208 143.494C403.821 143.329 403.401 143.263 402.983 143.3C402.566 143.337 402.163 143.477 401.81 143.708C401.656 143.343 401.412 143.026 401.101 142.788C400.351 142.422 399.512 142.294 398.691 142.419C397.87 142.545 397.104 142.919 396.492 143.494C396.179 143.041 395.744 142.691 395.241 142.489C394.284 142.266 393.283 142.351 392.376 142.734C391.469 143.117 390.699 143.778 390.173 144.627C389.738 144.297 389.212 144.119 388.671 144.119C388.131 144.119 387.604 144.297 387.17 144.627C386.8 144.942 386.527 145.36 386.383 145.83C386.238 146.301 386.229 146.804 386.356 147.279C385.715 148.159 385.368 149.228 385.368 150.326C385.368 151.425 385.715 152.494 386.356 153.374C386.803 153.647 387.333 153.739 387.842 153.632C388.351 153.525 388.803 153.227 389.109 152.796C389.223 153.041 389.401 153.247 389.625 153.392C389.848 153.537 390.107 153.613 390.371 153.613C390.635 153.613 390.894 153.537 391.117 153.392C391.34 153.247 391.519 153.041 391.633 152.796C392.058 153.492 392.719 154.002 393.489 154.229C394.247 154.349 395.024 154.219 395.706 153.857C396.388 153.496 396.94 152.923 397.284 152.219C397.512 152.804 397.933 153.288 398.473 153.588C398.835 153.761 399.23 153.851 399.63 153.851C400.03 153.851 400.426 153.761 400.788 153.588C400.586 154.141 400.55 154.745 400.684 155.32C400.806 155.795 401.033 156.235 401.348 156.606C401.663 156.976 402.056 157.268 402.498 157.458C402.277 157.854 402.178 158.309 402.215 158.764C402.252 159.219 402.424 159.651 402.707 160.003C402.926 160.239 403.192 160.424 403.487 160.545C403.782 160.667 404.099 160.723 404.417 160.709C404.417 160.709 404.709 165.307 405.209 165.349C405.71 165.392 406.857 162.099 406.857 162.099C406.857 162.099 408.463 161.586 408.942 162.655C409.287 164.046 409.085 165.521 408.379 166.761C408.119 167.249 407.819 167.714 407.482 168.151L408.379 170.931Z" fill="#1F1B78"/>
<path d="M425.96 266.543C422.665 266.244 423.77 241.373 424.333 234.359C424.896 227.344 426.002 220.009 429.693 220.309C433.384 220.608 433.28 228.071 432.717 235.064C432.154 242.057 429.234 266.821 425.96 266.543Z" fill="#EED7BA"/>
<path d="M426.314 260.106C430.214 260.106 429.38 267.163 429.005 269.559C428.4 273.451 424.062 276.872 422.581 276.658C421.101 276.445 423.124 267.719 422.832 267.377C422.54 267.035 421.893 271.804 420.538 271.462C419.182 271.12 420.225 265.346 421.497 263.207C421.893 262.246 422.568 261.434 423.43 260.879C424.291 260.324 425.298 260.055 426.314 260.106Z" fill="#EED7BA"/>
<path d="M149.258 199.587C150.322 195.973 130.363 187.697 121.646 184.81C112.929 181.923 105.546 181.281 104.253 185.708C102.96 190.134 109.467 193.748 118.289 196.293C127.11 198.838 148.278 203.286 149.258 199.587Z" fill="#EED7BA"/>
<path d="M114.055 182.265C120.891 184.136 127.617 186.407 134.201 189.065C134.121 193.14 132.913 197.108 130.718 200.506L113.617 196.999L112.366 184.874L114.055 182.265Z" fill="#EDBD45"/>
<path d="M183.314 185.793C182.396 182.564 159.039 188.702 152.532 190.69C146.026 192.679 139.269 195.245 140.311 198.859C141.354 202.474 148.382 200.87 154.91 198.859C161.437 196.849 184.252 189.001 183.314 185.793Z" fill="#EED7BA"/>
<path d="M179.247 186.477C178.517 182.585 185.358 182.051 187.714 181.944C191.51 181.773 196.056 184.489 196.16 186.007C196.265 187.525 187.547 187.376 187.276 187.739C187.005 188.103 191.239 188.573 191.155 190.006C191.072 191.439 185.42 191.524 183.168 190.669C182.174 190.466 181.265 189.956 180.564 189.206C179.863 188.456 179.403 187.504 179.247 186.477Z" fill="#EED7BA"/>
<path d="M103.774 370.089L103.565 374.794C103.565 374.953 103.596 375.111 103.656 375.257C103.716 375.404 103.804 375.537 103.914 375.649C104.025 375.76 104.156 375.848 104.3 375.907C104.445 375.966 104.599 375.995 104.754 375.992H117.1C117.341 375.989 117.576 375.909 117.772 375.764C117.968 375.618 118.115 375.414 118.192 375.18C118.27 374.945 118.275 374.692 118.206 374.454C118.138 374.216 117.999 374.006 117.809 373.853C115.775 372.194 113.423 370.992 110.906 370.325C110.697 370.325 108.946 330.591 107.09 330.57C105.233 330.548 103.774 370.089 103.774 370.089Z" fill="#EED7BA"/>
<path d="M76.8083 369.876V374.366C77.0892 375.402 77.7263 376.299 78.6019 376.89C81.7301 378.258 87.6946 377.446 87.924 376.334C88.1534 375.222 86.5059 372.827 85.1712 371.094C84.3161 369.982 83.5862 369.17 83.5862 369.17C83.5862 369.17 81.9178 330.677 80.1451 330.677C78.3725 330.677 76.8083 369.876 76.8083 369.876Z" fill="#EED7BA"/>
<path d="M106.818 309.399C111.99 309.399 114.764 279.994 115.014 267.42C115.265 254.845 113.137 244.901 106.818 244.901C100.499 244.901 98.4765 254.845 98.6433 267.42C98.8102 279.994 101.667 309.399 106.818 309.399Z" fill="#EED7BA"/>
<path d="M106.818 371.864C111.406 371.864 112.658 330.378 112.658 321.054C112.658 311.73 111.97 301.807 106.818 301.807C101.667 301.807 101 311.666 101 321.054C101 330.442 102.251 371.864 106.818 371.864Z" fill="#EED7BA"/>
<path d="M84.6081 309.377C89.7384 309.848 95.0355 280.828 96.4745 268.34C97.9134 255.851 96.6204 245.757 90.3431 245.158C84.0658 244.559 81.0628 254.268 80.1869 266.8C79.311 279.331 79.5195 308.886 84.6081 309.377Z" fill="#EED7BA"/>
<path d="M79.8531 371.629C84.4204 372.057 88.6122 330.805 89.4464 321.524C90.2806 312.243 90.4474 302.277 85.2754 301.893C80.1034 301.508 78.581 311.152 77.7468 320.433C76.9126 329.714 75.2859 371.201 79.8531 371.629Z" fill="#EED7BA"/>
<path d="M80.6664 254.61H114.743L116.161 198.389L113.617 182.543L97.1209 177.303L87.5902 179.164C84.9673 179.682 82.6106 181.142 80.9438 183.282C79.2771 185.423 78.4096 188.102 78.4975 190.84L81.9803 230.638L80.6664 254.61Z" fill="#EED7BA"/>
<path d="M70.9898 226.96C74.5351 228.136 83.0231 207.713 85.9844 198.667C88.9458 189.621 89.7383 182.072 85.4005 180.661C81.0627 179.25 77.4131 185.9 74.7645 194.989C72.116 204.078 67.4445 225.805 70.9898 226.96Z" fill="#EED7BA"/>
<path d="M106.485 159.597C107.611 159.917 108.049 163.745 107.861 163.724C107.673 163.703 106.944 160.666 105.963 160.195C104.983 159.725 106.485 159.597 106.485 159.597Z" fill="#DDBE9B"/>
<path d="M110.677 159.746C110.072 160.516 110.551 163.317 110.572 163.574C110.593 163.831 110.885 160.174 110.885 160.174L110.677 159.746Z" fill="#DDBE9B"/>
<path d="M101.751 159.746V160.195C101.751 160.195 106.464 160.195 106.485 160.195C106.506 160.195 106.672 159.767 106.485 159.618C105.588 158.805 101.751 159.746 101.751 159.746Z" fill="#112B46"/>
<path d="M114.055 159.725V160.217H110.739C110.696 160.123 110.674 160.021 110.674 159.917C110.674 159.814 110.696 159.712 110.739 159.618C111.386 158.805 114.055 159.725 114.055 159.725Z" fill="#112B46"/>
<path d="M104.441 163.724C104.959 163.724 105.379 163.293 105.379 162.762C105.379 162.23 104.959 161.799 104.441 161.799C103.923 161.799 103.502 162.23 103.502 162.762C103.502 163.293 103.923 163.724 104.441 163.724Z" fill="#112B46"/>
<path d="M102.501 161.97C103.102 161.626 103.774 161.435 104.462 161.414C105.148 161.441 105.819 161.632 106.422 161.97H102.501Z" fill="#112B46"/>
<path d="M112.241 163.724C112.759 163.724 113.179 163.293 113.179 162.762C113.179 162.23 112.759 161.799 112.241 161.799C111.722 161.799 111.302 162.23 111.302 162.762C111.302 163.293 111.722 163.724 112.241 163.724Z" fill="#112B46"/>
<path d="M110.885 161.97C111.267 161.641 111.742 161.446 112.241 161.414C112.744 161.45 113.225 161.644 113.617 161.97H110.885Z" fill="#112B46"/>
<path d="M109.446 167.638C108.508 167.638 107.736 167.637 107.736 167.83C107.736 168.022 108.508 168.407 109.446 168.407C110.385 168.407 111.156 168.087 111.156 167.83C111.156 167.573 110.385 167.638 109.446 167.638Z" fill="#E0BD96"/>
<path d="M109.446 171.615C108.758 171.615 108.195 171.615 108.195 171.765C108.195 171.914 108.758 172.385 109.446 172.385C110.134 172.385 110.697 171.957 110.697 171.765C110.697 171.572 110.134 171.615 109.446 171.615Z" fill="#DDBE9B"/>
<path d="M112.637 170.054C112.683 170.052 112.728 170.065 112.766 170.092C112.804 170.119 112.832 170.158 112.846 170.203C112.859 170.26 112.852 170.32 112.825 170.371C112.798 170.423 112.753 170.462 112.7 170.481C111.645 170.773 110.559 170.931 109.467 170.952C108.361 170.929 107.262 170.771 106.193 170.481C106.165 170.474 106.138 170.461 106.116 170.443C106.093 170.424 106.074 170.402 106.06 170.375C106.046 170.349 106.038 170.32 106.036 170.291C106.034 170.261 106.037 170.231 106.047 170.203C106.066 170.148 106.104 170.103 106.154 170.075C106.204 170.047 106.263 170.04 106.318 170.054C107.348 170.325 108.404 170.476 109.467 170.503C110.516 170.475 111.559 170.325 112.574 170.054H112.637Z" fill="#DDBE9B"/>
<path d="M93.5131 169.797V181.089C95.9527 182.211 98.6237 182.703 101.292 182.521C104.232 182.521 104.9 181.089 104.9 181.089V176.812L93.5131 169.797Z" fill="#EED7BA"/>
<path d="M92.2409 161.35V162.526C92.2409 162.655 92.2409 162.783 92.2409 162.933C91.9698 169.626 96.1825 176.812 102.502 177.902H102.856C104.212 178.073 109.112 178.48 110.885 176.448C113.177 173.725 114.564 170.325 114.848 166.739C114.775 165.104 114.601 163.476 114.326 161.863C114.326 160.923 114.827 157.993 114.827 156.731C114.917 155.206 114.704 153.679 114.2 152.241C113.696 150.804 112.912 149.486 111.895 148.37C110.879 147.253 109.651 146.361 108.287 145.747C106.923 145.133 105.451 144.81 103.961 144.798C93.5339 144.734 91.949 154.101 92.2409 161.35Z" fill="#EED7BA"/>
<path d="M97.1208 161.97C97.6005 159.511 99.5608 158.613 99.8111 157.116C99.9704 155.421 100.285 153.746 100.75 152.112C101.313 150.636 106.526 150.957 108.257 151.299C110.479 151.748 112.773 151.652 114.952 151.021C115.814 150.329 116.414 149.349 116.646 148.252C116.878 147.154 116.729 146.008 116.224 145.012L115.598 145.653C114.241 144.029 112.439 142.859 110.426 142.296L110.948 143.771C107.585 143.36 104.197 143.209 100.812 143.322C98.8845 143.765 97.1152 144.75 95.7027 146.167C94.8226 145.846 93.8551 145.89 93.0061 146.289C92.1571 146.689 91.4935 147.412 91.1564 148.305C90.3639 150.208 86.9854 159.554 93.5755 171.551L95.661 162.163L97.1208 161.97Z" fill="#1F1B78"/>
<path d="M95.3065 161.436C94.4723 161.243 92.512 160.537 92.8665 163.574C93.4922 168.728 96.4327 168.407 96.4327 168.407C96.2658 167.659 96.0156 166.632 95.7862 165.435C96.5787 164.943 95.5568 164.322 95.5151 163.724C95.4923 163.596 95.4923 163.466 95.5151 163.339C95.3899 162.654 95.3482 162.098 95.3065 161.436Z" fill="#EED7BA"/>
<path d="M95.4734 163.296C95.4734 163.296 94.5557 162.398 93.8675 162.761C93.1793 163.125 93.659 164.772 94.2221 165.755C94.7851 166.739 95.3691 166.825 95.4734 166.547C95.5776 166.269 94.368 165.691 94.806 165.242C95.2439 164.793 95.6819 164.686 95.6402 164.429L95.4734 163.296Z" fill="#DDBE9B"/>
<path d="M97.1209 159.276C96.8498 161.222 97.1209 167.83 97.1209 167.83H96.2659L94.9312 160.751L97.1209 159.276Z" fill="#56548C"/>
<path d="M106.422 177.945C103.252 178.116 99.0187 174.93 97.8509 173.476C96.9478 171.896 96.3462 170.154 96.0782 168.343C95.755 168.358 95.4334 168.288 95.1447 168.138C94.856 167.988 94.6101 167.764 94.4307 167.488C94.4307 167.488 94.4307 169.092 95.1397 169.626C95.8488 170.161 96.1616 170.289 96.2867 170.696C96.4119 171.102 97.1418 176.17 99.7695 177.603C101.897 178.43 104.225 178.55 106.422 177.945Z" fill="#DDBE9B"/>
<path d="M103.565 371.031V375.436C103.565 375.648 103.646 375.851 103.79 376.003C103.934 376.155 104.13 376.243 104.337 376.249H118.184C118.452 376.255 118.715 376.173 118.935 376.014C119.154 375.856 119.317 375.629 119.402 375.368C119.486 375.107 119.486 374.825 119.402 374.564C119.318 374.303 119.154 374.076 118.935 373.918C116.516 372.281 113.97 370.851 111.323 369.641C110.76 370.154 109.905 371.779 108.904 371.929C107.1 371.809 105.312 371.508 103.565 371.031Z" fill="#56548C"/>
<path d="M76.8083 370.453V374.367C77.0892 375.402 77.7263 376.299 78.6019 376.89C81.7301 378.259 87.6946 377.446 87.924 376.334C88.1534 375.222 86.5059 372.827 85.1712 371.095C83.7128 370.667 82.1666 370.667 80.7082 371.095C80.0486 371.508 79.3499 371.852 78.6227 372.121C77.9655 371.628 77.3577 371.069 76.8083 370.453Z" fill="#56548C"/>
<path d="M97.8091 261.282V263.977L85.2128 367.245H75.4528L79.8323 261.282H97.8091Z" fill="#1F1B78"/>
<path d="M115.598 261.282L111.511 367.245H101.876L97.8091 263.977V261.282H115.598Z" fill="#1F1B78"/>
<path d="M106.422 178.373L104.879 181.302V181.11V178.244L105.484 178.159L106.422 178.373Z" fill="#FFDD88"/>
<path d="M98.7058 177.881L97.1626 182.521C94.8269 180.597 91.7195 178.351 91.7195 178.351L93.5338 175.357L98.7058 177.881Z" fill="#FFDD88"/>
<path d="M106.735 179.891L107.256 182.521L104.879 181.366V181.302L106.422 178.373L106.735 179.891Z" fill="#EDBD45"/>
<path d="M84.3578 179.763C88.7582 180.233 91.0522 184.36 89.5715 190.755C87.5108 197.938 85.0102 204.98 82.0846 211.84L81.021 211.626C72.2412 209.766 70.9899 206.879 70.9899 206.879C73.4507 195.908 77.6425 183.954 81.0419 181.388C82.0587 180.674 83.1773 180.126 84.3578 179.763Z" fill="#EDBD45"/>
<path d="M107.256 182.521L106.735 179.891L114.055 182.265C115.886 186.597 116.98 191.219 117.288 195.93C117.392 198.068 117.392 204.12 117.288 211.755C117.079 231.365 116.453 261.261 116.453 261.261H79.0607C79.0607 261.261 80.7291 238.999 81.021 232.178C81.0137 226.162 80.6166 220.154 79.8323 214.193L81.021 211.541L82.0846 211.755C85.0102 204.895 87.5108 197.852 89.5715 190.669C91.0522 184.254 88.7582 180.148 84.3578 179.677C86.7575 178.963 89.226 178.518 91.7196 178.351C91.7196 178.351 94.8269 180.49 97.1627 182.521L98.7059 177.881L102.647 186.135L104.9 181.11V181.367L107.256 182.521Z" fill="#FBD15B"/>
<path d="M75.9533 265.688C79.2484 265.41 78.1431 240.517 77.58 233.503C77.0169 226.489 75.9116 219.154 72.2203 219.453C68.529 219.753 68.6124 227.216 69.1963 234.23C69.7803 241.245 72.6583 265.966 75.9533 265.688Z" fill="#EED7BA"/>
<path d="M75.5988 259.251C71.6989 259.251 72.5331 266.329 72.9085 268.724C73.5133 272.616 81.1044 280.721 79.1649 271.633C78.8636 269.921 78.8636 268.169 79.1649 266.457C79.4778 266.115 80.1034 270.97 81.4798 270.627C82.8562 270.285 81.7926 264.49 80.5205 262.373C80.119 261.392 79.4291 260.564 78.5468 260.004C77.6646 259.445 76.634 259.181 75.5988 259.251Z" fill="#EED7BA"/>
<path d="M286.086 213.658H279.455V253.349H286.086V213.658Z" fill="#EAEEEF"/>
<path d="M300.309 213.658H293.678V253.349H300.309V213.658Z" fill="#EAEEEF"/>
<path d="M314.532 213.658H307.901V253.349H314.532V213.658Z" fill="#EAEEEF"/>
<path d="M328.755 213.658H322.124V253.349H328.755V213.658Z" fill="#EAEEEF"/>
<path d="M342.978 213.658H336.347V253.349H342.978V213.658Z" fill="#EAEEEF"/>
<path d="M286.086 243.426H279.455V253.348H286.086V243.426Z" fill="#1C98F3"/>
<path d="M300.309 230.21H293.678V253.349H300.309V230.21Z" fill="#1C98F3"/>
<path d="M314.532 236.455H307.901V253.327H314.532V236.455Z" fill="#1C98F3"/>
<path d="M328.755 224.714H322.124V253.348H328.755V224.714Z" fill="#1C98F3"/>
<path d="M342.978 219.582H336.347V253.327H342.978V219.582Z" fill="#1C98F3"/>
<path d="M222.104 240.197H221.061V296.931H222.104V240.197Z" fill="#EAEEEF"/>
<path d="M207.985 240.197H206.942V296.931H207.985V240.197Z" fill="#EAEEEF"/>
<path d="M193.846 240.197H192.803V296.931H193.846V240.197Z" fill="#EAEEEF"/>
<path d="M179.727 240.197H178.684V296.931H179.727V240.197Z" fill="#EAEEEF"/>
<path d="M165.587 240.197H164.545V296.931H165.587V240.197Z" fill="#EAEEEF"/>
<path d="M137.329 240.197H136.286V296.931H137.329V240.197Z" fill="#EAEEEF"/>
<path d="M151.469 240.197H150.426V296.931H151.469V240.197Z" fill="#EAEEEF"/>
<path d="M136.745 286.538C136.538 286.535 136.337 286.469 136.167 286.349C135.997 286.229 135.866 286.059 135.79 285.862C135.714 285.665 135.697 285.449 135.741 285.242C135.784 285.035 135.887 284.846 136.036 284.699L150.363 270.478L164.482 266.843L178.893 252.215L193.22 258.053L206.922 250.975L221.019 243.041C221.14 242.973 221.272 242.931 221.409 242.915C221.545 242.9 221.683 242.913 221.815 242.953C221.947 242.992 222.07 243.058 222.177 243.147C222.283 243.236 222.372 243.345 222.438 243.469C222.504 243.592 222.545 243.728 222.56 243.868C222.575 244.008 222.562 244.15 222.524 244.285C222.485 244.42 222.421 244.546 222.334 244.655C222.248 244.765 222.141 244.856 222.02 244.923L207.902 252.857L193.303 260.406L179.372 254.717L165.525 268.767L151.385 272.403L137.454 286.239C137.362 286.335 137.251 286.411 137.129 286.462C137.008 286.514 136.877 286.54 136.745 286.538Z" fill="#1C98F3"/>
<path d="M139.623 282.604H133.992V288.378H139.623V282.604Z" fill="#FBD15B"/>
<path d="M153.763 268.553H148.132V274.327H153.763V268.553Z" fill="#FBD15B"/>
<path d="M167.881 264.918H162.25V270.692H167.881V264.918Z" fill="#FBD15B"/>
<path d="M182.021 250.568H176.39V256.342H182.021V250.568Z" fill="#FBD15B"/>
<path d="M196.14 256.342H190.509V262.116H196.14V256.342Z" fill="#FBD15B"/>
<path d="M210.279 249.029H204.648V254.803H210.279V249.029Z" fill="#FBD15B"/>
<path d="M224.398 241.095H218.767V246.869H224.398V241.095Z" fill="#FBD15B"/>
<path d="M233.991 308.565H124.42V311.431H233.991V308.565Z" fill="#EAEEEF"/>
<path d="M233.991 315.194H124.42V318.06H233.991V315.194Z" fill="#EAEEEF"/>
<path d="M144.795 76.2379C147.736 78.3764 161.479 62.0168 166.901 54.6176C172.323 47.2184 175.243 40.3966 171.594 37.7662C167.944 35.1359 162.668 40.1827 157.579 47.7744C152.49 55.3661 141.855 74.078 144.795 76.2379Z" fill="#EED7BA"/>
<path d="M139.811 115.116C142.96 115.693 147.944 91.9984 149.091 85.1766C150.238 78.3548 150.989 71.2335 147.444 70.592C143.898 69.9504 142.188 77.0075 141.041 83.7224C139.894 90.4373 136.745 114.56 139.811 115.116Z" fill="#EED7BA"/>
<path d="M144.816 113.148C144.128 110.817 143.335 109.577 141.02 108.978C137.35 108.016 136.015 115.8 135.765 118.131C135.515 120.462 138.184 124.781 139.644 124.953C141.104 125.124 141.917 117.168 142.355 117.104C142.793 117.04 142.856 117.446 142.897 118.002H144.983C145.202 116.387 145.145 114.744 144.816 113.148Z" fill="#EED7BA"/>
<path d="M169.758 36.0337C165.483 36.9319 161.708 41.7863 157.058 46.4696C159.701 49.9087 163.065 52.6934 166.901 54.6173L164.982 57.1621C165.406 61.1705 166.103 65.1436 167.068 69.0522C168.59 74.8475 173.137 55.4086 173.137 55.4086L174.492 38.5358L169.758 36.0337Z" fill="#F08879"/>
<path d="M224.043 107.93C220.853 108.272 217.474 84.4067 216.765 77.4993C216.056 70.5919 215.785 63.4707 219.372 63.0644C222.959 62.6581 224.189 69.8007 224.898 76.6011C225.608 83.4016 227.234 107.567 224.043 107.93Z" fill="#EED7BA"/>
<path d="M219.163 106.818C219.301 105.813 219.736 104.875 220.412 104.133C221.087 103.39 221.969 102.879 222.938 102.669C226.608 101.707 227.964 109.491 228.193 111.822C228.423 114.153 225.774 118.473 224.335 118.644C222.896 118.815 222.041 110.86 221.624 110.796C221.207 110.732 221.124 111.138 221.061 111.694H218.976C218.753 110.07 218.816 108.419 219.163 106.818Z" fill="#EED7BA"/>
<path d="M272.197 300.609H260.101C257.372 300.609 255.159 302.878 255.159 305.678V318.081C255.159 320.88 257.372 323.149 260.101 323.149H272.197C274.927 323.149 277.14 320.88 277.14 318.081V305.678C277.14 302.878 274.927 300.609 272.197 300.609Z" fill="#EC827D"/>
<path d="M178.914 325.48H166.818C164.088 325.48 161.875 327.75 161.875 330.549V342.952C161.875 345.751 164.088 348.02 166.818 348.02H178.914C181.643 348.02 183.856 345.751 183.856 342.952V330.549C183.856 327.75 181.643 325.48 178.914 325.48Z" fill="#606BF1"/>
<path d="M339.788 323.149H327.692C324.962 323.149 322.749 325.419 322.749 328.218V340.621C322.749 343.42 324.962 345.689 327.692 345.689H339.788C342.517 345.689 344.73 343.42 344.73 340.621V328.218C344.73 325.419 342.517 323.149 339.788 323.149Z" fill="#FBD15B"/>
<path d="M320.601 119.542H308.505C305.776 119.542 303.563 121.812 303.563 124.611V137.014C303.563 139.813 305.776 142.082 308.505 142.082H320.601C323.331 142.082 325.544 139.813 325.544 137.014V124.611C325.544 121.812 323.331 119.542 320.601 119.542Z" fill="#56548C"/>
</g>
<defs>
<clipPath id="clip0_213_4866">
<rect width="465" height="386" fill="white"/>
</clipPath>
</defs>
</svg>
