<svg width="49" height="49" viewBox="0 0 49 49" fill="none" xmlns="http://www.w3.org/2000/svg">
<rect x="24.3624" y="-0.00415039" width="34" height="34" rx="6" transform="rotate(45 24.3624 -0.00415039)" fill="#EDE7F6"/>
<path fill-rule="evenodd" clip-rule="evenodd" d="M29.0662 24.0375L24.5549 27.4691C24.4907 27.4638 24.4266 27.4584 24.3624 27.4584C23.4163 27.4584 22.652 28.2228 22.652 29.1689C22.652 30.115 23.4163 30.8793 24.3624 30.8793C25.3085 30.8793 26.0729 30.115 26.0729 29.1689C26.0729 29.1047 26.0676 29.0406 26.0622 28.9765L29.4938 24.4651L29.0662 24.0375Z" fill="#651FFF"/>
<path fill-rule="evenodd" clip-rule="evenodd" d="M24.3624 15.4851C17.7504 15.4851 12.3892 20.8464 12.3892 27.4584C12.3892 29.2971 12.8061 31.0343 13.5437 32.5898H15.4733C14.6502 31.168 14.1798 29.5644 14.1103 27.886H15.8101V27.0308H14.1103C14.1745 25.4913 14.5754 24.0107 15.2756 22.6798L16.7455 23.5297L17.1731 22.7867L15.7032 21.9421C16.0987 21.3221 16.5691 20.7341 17.1036 20.1996C17.6488 19.6597 18.2422 19.184 18.8729 18.7831L19.7174 20.2423L20.4604 19.8147L19.6159 18.3555C20.9415 17.6606 22.4061 17.2704 23.9348 17.2063V18.906H24.7901V17.2063C26.3188 17.2704 27.7834 17.666 29.109 18.3555L28.2698 19.8147L29.0128 20.2423L29.8573 18.7831C30.488 19.184 31.0814 19.6597 31.6266 20.1996C32.1611 20.7341 32.6261 21.3167 33.027 21.9421L31.5624 22.7867L31.9901 23.5297L33.46 22.6798C34.1602 24.0107 34.5611 25.4913 34.6252 27.0308H32.9148V27.886H34.6145C34.5451 29.5644 34.0747 31.168 33.2515 32.5898H35.1811C35.9188 31.0343 36.3357 29.2971 36.3357 27.4584C36.3357 20.8464 30.9745 15.4851 24.3624 15.4851Z" fill="#651FFF"/>
</svg>
