<svg width="49" height="49" viewBox="0 0 49 49" fill="none" xmlns="http://www.w3.org/2000/svg">
<rect x="24.652" y="0.0791016" width="34" height="34" rx="6" transform="rotate(45 24.652 0.0791016)" fill="#FBEABB"/>
<path fill-rule="evenodd" clip-rule="evenodd" d="M24.652 19.5209C26.018 19.5209 27.3074 20.0579 28.2826 21.0331C29.2578 22.0083 29.7948 23.2977 29.7948 24.6637C29.7948 25.6077 29.5579 26.4868 29.0907 27.2766C28.644 28.0318 27.9959 28.6714 27.2165 29.1262L26.3663 29.6224V30.6068V34.4064H22.9377V30.6068V29.6224L22.0875 29.1262C20.4971 28.1981 19.5091 26.4882 19.5091 24.6637C19.5091 23.2977 20.0462 22.0084 21.0214 21.0331C21.9966 20.0579 23.286 19.5209 24.652 19.5209ZM25.7948 12.1207C25.4522 12.1207 23.5091 12.1207 23.5091 12.1207V15.5493H25.7948V12.1207ZM32.7089 15.0063L30.652 17.0638L32.2518 18.6637L34.3093 16.6068L32.7089 15.0063ZM16.595 15.0063L14.9946 16.6067L17.0521 18.6637L18.652 17.0638L16.595 15.0063ZM24.652 17.8066C20.8808 17.8066 17.7948 20.8925 17.7948 24.6637C17.7948 27.1783 19.1665 29.4065 21.2234 30.6068V36.1207H28.0805V30.6068C30.1375 29.4065 31.5091 27.2351 31.5091 24.6637C31.5091 20.8925 28.4232 17.8066 24.652 17.8066ZM36.652 23.5208H33.2234V25.8066H36.652V23.5208ZM16.0805 23.5208H12.652V25.8066H16.0805V23.5208Z" fill="#F38D21"/>
</svg>
