<svg width="639" height="686" viewBox="0 0 639 686" fill="none" xmlns="http://www.w3.org/2000/svg">
<path d="M355.566 637.943C327.246 663.442 283.618 661.155 258.119 632.836L50.8197 402.607C25.3207 374.287 27.6072 330.659 55.9267 305.16L286.156 97.8609C314.475 72.3619 358.104 74.6484 383.603 102.968L590.902 333.197C616.401 361.516 614.114 405.145 585.795 430.644L355.566 637.943Z" stroke="#0D47A1" stroke-width="2"/>
<path d="M373.038 595.77C344.718 621.269 301.09 618.983 275.591 590.663L112.992 410.079C87.4931 381.76 89.7796 338.131 118.099 312.632L298.683 150.033C327.003 124.534 370.631 126.821 396.13 155.14L558.729 335.725C584.228 364.044 581.942 407.673 553.622 433.172L373.038 595.77Z" stroke="#0D47A1" stroke-width="2"/>
<path fill-rule="evenodd" clip-rule="evenodd" d="M376.657 556.229C356.135 574.707 324.52 573.05 306.043 552.529L167.533 398.698C149.055 378.176 150.712 346.562 171.234 328.084L325.065 189.574C345.586 171.096 377.201 172.753 395.678 193.275L534.188 347.106C552.666 367.627 551.009 399.242 530.488 417.719L376.657 556.229Z" fill="#0D47A1"/>
<path fill-rule="evenodd" clip-rule="evenodd" d="M382.866 506.105C369.733 517.931 349.499 516.871 337.673 503.737L243.326 398.953C231.5 385.82 232.561 365.586 245.694 353.761L356.051 254.395C369.185 242.569 389.419 243.629 401.244 256.763L495.592 361.547C507.417 374.68 506.357 394.914 493.223 406.739L382.866 506.105Z" fill="#2196F3"/>
<path d="M330.955 350.842C330.955 355.801 329.779 359.652 327.426 362.395C325.09 365.137 321.84 366.508 317.676 366.508C313.529 366.508 310.27 365.154 307.9 362.445C305.53 359.72 304.329 355.911 304.295 351.02V344.697C304.295 339.619 305.471 335.658 307.824 332.814C310.177 329.954 313.444 328.523 317.625 328.523C321.738 328.523 324.98 329.928 327.349 332.738C329.719 335.531 330.921 339.458 330.955 344.52V350.842ZM323.465 344.646C323.465 341.312 322.991 338.832 322.043 337.207C321.095 335.582 319.622 334.77 317.625 334.77C315.644 334.77 314.18 335.557 313.232 337.131C312.284 338.688 311.793 341.066 311.76 344.266V350.842C311.76 354.075 312.242 356.462 313.207 358.002C314.172 359.525 315.661 360.287 317.676 360.287C319.622 360.287 321.07 359.542 322.017 358.053C322.965 356.546 323.448 354.219 323.465 351.07V344.646ZM349.465 363.486C347.975 365.501 345.978 366.508 343.473 366.508C340.95 366.508 339.038 365.645 337.734 363.918C336.431 362.174 335.779 359.644 335.779 356.326V338.527H342.965V356.504C342.999 359.178 343.887 360.516 345.631 360.516C347.273 360.516 348.458 359.805 349.185 358.383V338.527H356.422V366H349.668L349.465 363.486ZM375.109 345.459L372.723 345.256C370.759 345.256 369.43 346.119 368.736 347.846V366H361.525V338.527H368.305L368.508 341.498C369.642 339.179 371.208 338.02 373.205 338.02C374.017 338.02 374.678 338.13 375.185 338.35L375.109 345.459ZM316.965 419.844L323.185 393.031H331.514L320.849 430H313.08L302.492 393.031H310.769L316.965 419.844ZM346.519 430C346.316 429.577 346.113 428.866 345.91 427.867C344.624 429.628 342.88 430.508 340.68 430.508C338.377 430.508 336.465 429.746 334.941 428.223C333.435 426.699 332.682 424.727 332.682 422.307C332.682 419.429 333.596 417.203 335.424 415.629C337.269 414.055 339.918 413.251 343.371 413.217H345.555V411.008C345.555 409.772 345.343 408.9 344.92 408.393C344.497 407.885 343.879 407.631 343.066 407.631C341.272 407.631 340.375 408.68 340.375 410.779H333.189C333.189 408.24 334.137 406.15 336.033 404.508C337.946 402.849 340.358 402.02 343.269 402.02C346.282 402.02 348.61 402.807 350.252 404.381C351.911 405.938 352.74 408.173 352.74 411.084V424.008C352.774 426.378 353.113 428.231 353.756 429.568V430H346.519ZM342.279 424.871C343.075 424.871 343.752 424.71 344.31 424.389C344.869 424.067 345.284 423.686 345.555 423.246V417.533H343.828C342.609 417.533 341.644 417.923 340.933 418.701C340.239 419.48 339.892 420.521 339.892 421.824C339.892 423.855 340.688 424.871 342.279 424.871ZM365.486 430H358.275V391H365.486V430ZM384.555 427.486C383.065 429.501 381.068 430.508 378.562 430.508C376.04 430.508 374.127 429.645 372.824 427.918C371.521 426.174 370.869 423.644 370.869 420.326V402.527H378.055V420.504C378.088 423.178 378.977 424.516 380.721 424.516C382.363 424.516 383.547 423.805 384.275 422.383V402.527H391.512V430H384.758L384.555 427.486ZM407.736 430.508C404.046 430.508 401.168 429.408 399.103 427.207C397.038 425.007 396.006 421.858 396.006 417.762V415.578C396.006 411.245 396.954 407.902 398.849 405.549C400.745 403.196 403.462 402.02 407 402.02C410.453 402.02 413.051 403.128 414.795 405.346C416.538 407.546 417.427 410.813 417.461 415.146V418.676H403.166C403.267 420.707 403.716 422.197 404.512 423.145C405.307 424.076 406.534 424.541 408.193 424.541C410.597 424.541 412.603 423.72 414.211 422.078L417.029 426.42C416.149 427.639 414.871 428.629 413.195 429.391C411.519 430.135 409.7 430.508 407.736 430.508ZM403.217 413.648H410.402V412.988C410.368 411.346 410.098 410.102 409.59 409.256C409.082 408.41 408.202 407.986 406.949 407.986C405.696 407.986 404.782 408.435 404.207 409.332C403.648 410.229 403.318 411.668 403.217 413.648ZM433.685 422.637C433.685 422.027 433.389 421.469 432.797 420.961C432.221 420.436 430.926 419.734 428.912 418.854C425.95 417.652 423.91 416.408 422.793 415.121C421.693 413.835 421.142 412.235 421.142 410.322C421.142 407.919 422.006 405.938 423.732 404.381C425.476 402.807 427.778 402.02 430.639 402.02C433.652 402.02 436.064 402.798 437.875 404.355C439.686 405.913 440.592 408.003 440.592 410.627H433.406C433.406 408.393 432.475 407.275 430.613 407.275C429.851 407.275 429.225 407.512 428.734 407.986C428.243 408.46 427.998 409.12 427.998 409.967C427.998 410.576 428.269 411.118 428.81 411.592C429.352 412.049 430.63 412.709 432.644 413.572C435.573 414.656 437.638 415.866 438.84 417.203C440.058 418.523 440.668 420.242 440.668 422.357C440.668 424.812 439.745 426.784 437.9 428.273C436.055 429.763 433.635 430.508 430.639 430.508C428.624 430.508 426.847 430.118 425.307 429.34C423.766 428.544 422.556 427.444 421.676 426.039C420.812 424.634 420.381 423.119 420.381 421.494H427.211C427.245 422.747 427.532 423.686 428.074 424.312C428.633 424.939 429.538 425.252 430.791 425.252C432.721 425.252 433.685 424.38 433.685 422.637Z" fill="white"/>
<g filter="url(#filter0_d_3_197)">
<ellipse cx="176.459" cy="444.25" rx="31" ry="30.75" fill="#00BCD4"/>
<path d="M205.459 444.25C205.459 460.113 192.49 473 176.459 473C160.427 473 147.459 460.113 147.459 444.25C147.459 428.387 160.427 415.5 176.459 415.5C192.49 415.5 205.459 428.387 205.459 444.25Z" stroke="white" stroke-width="4"/>
</g>
<ellipse cx="176.459" cy="444.212" rx="4.85714" ry="4.88474" fill="white"/>
<path fill-rule="evenodd" clip-rule="evenodd" d="M167.959 444.212C167.959 441.396 169.367 438.93 171.474 437.569L169.718 435.698C169.242 436.05 168.793 436.449 168.375 436.894C166.541 438.849 165.53 441.447 165.53 444.212C165.53 446.976 166.541 449.575 168.375 451.53C168.793 451.975 169.242 452.374 169.718 452.725L171.474 450.855C169.367 449.494 167.959 447.028 167.959 444.212Z" fill="white"/>
<path fill-rule="evenodd" clip-rule="evenodd" d="M184.959 444.212C184.959 447.028 183.551 449.494 181.444 450.855L183.2 452.725C183.675 452.374 184.125 451.975 184.542 451.53C186.377 449.575 187.387 446.976 187.387 444.212C187.387 441.447 186.377 438.848 184.542 436.894C184.125 436.449 183.675 436.05 183.2 435.698L181.444 437.569C183.551 438.93 184.959 441.395 184.959 444.212Z" fill="white"/>
<path fill-rule="evenodd" clip-rule="evenodd" d="M161.887 444.212C161.887 439.97 163.804 436.205 166.765 433.846L165.032 432C164.577 432.382 164.141 432.793 163.727 433.235C162.389 434.66 161.339 436.32 160.605 438.168C159.844 440.084 159.459 442.117 159.459 444.212C159.459 446.306 159.844 448.34 160.605 450.255C161.339 452.104 162.389 453.764 163.727 455.189C164.141 455.63 164.577 456.042 165.032 456.424L166.764 454.578C163.804 452.219 161.887 448.454 161.887 444.212Z" fill="white"/>
<path fill-rule="evenodd" clip-rule="evenodd" d="M191.03 444.212C191.03 448.454 189.114 452.219 186.153 454.578L187.886 456.398C188.341 456.016 188.777 455.63 189.191 455.189C190.528 453.764 191.579 452.104 192.313 450.255C193.073 448.34 193.459 446.306 193.459 444.212C193.459 442.117 193.073 440.084 192.313 438.168C191.579 436.319 190.528 434.66 189.191 433.235C188.777 432.793 188.341 432.382 187.886 432L186.153 433.846C189.114 436.205 191.03 439.97 191.03 444.212Z" fill="white"/>
<g filter="url(#filter1_d_3_197)">
<ellipse cx="81.9589" cy="517.75" rx="23" ry="22.75" fill="#A36AF2"/>
<path d="M102.959 517.75C102.959 529.189 93.5775 538.5 81.9589 538.5C70.3402 538.5 60.9589 529.189 60.9589 517.75C60.9589 506.311 70.3402 497 81.9589 497C93.5775 497 102.959 506.311 102.959 517.75Z" stroke="white" stroke-width="4"/>
</g>
<path fill-rule="evenodd" clip-rule="evenodd" d="M80.1731 512.643C80.1731 513.631 80.9711 514.429 81.9589 514.429C82.9466 514.429 83.7446 513.631 83.7446 512.643V507.286C83.7446 506.298 82.9466 505.5 81.9589 505.5C80.9711 505.5 80.1731 506.298 80.1731 507.286V512.643Z" fill="white"/>
<path fill-rule="evenodd" clip-rule="evenodd" d="M81.9589 521.571C82.9466 521.571 83.7446 522.369 83.7446 523.357V528.714C83.7446 529.702 82.9466 530.5 81.9589 530.5C80.9711 530.5 80.1731 529.702 80.1731 528.714V523.357C80.1731 522.369 80.9711 521.571 81.9589 521.571Z" fill="white"/>
<path fill-rule="evenodd" clip-rule="evenodd" d="M71.2446 516.214H76.6017C77.5895 516.214 78.3875 517.012 78.3875 518C78.3875 518.988 77.5895 519.786 76.6017 519.786H71.2446C70.2569 519.786 69.4589 518.988 69.4589 518C69.4589 517.012 70.2569 516.214 71.2446 516.214Z" fill="white"/>
<path fill-rule="evenodd" clip-rule="evenodd" d="M87.316 516.214H92.6731C93.6609 516.214 94.4589 517.012 94.4589 518C94.4589 518.988 93.6609 519.786 92.6731 519.786H87.316C86.3283 519.786 85.5303 518.988 85.5303 518C85.5303 517.012 86.3283 516.214 87.316 516.214Z" fill="white"/>
<path fill-rule="evenodd" clip-rule="evenodd" d="M76.9087 515.472C77.6062 516.17 78.739 516.17 79.4366 515.472C80.1341 514.775 80.1341 513.642 79.4366 512.944L75.6475 509.155C74.95 508.458 73.8171 508.458 73.1196 509.155C72.422 509.853 72.422 510.985 73.1196 511.683L76.9087 515.472Z" fill="white"/>
<path fill-rule="evenodd" clip-rule="evenodd" d="M84.4868 520.528C85.1843 519.83 86.3171 519.83 87.0147 520.528L90.8037 524.317C91.5013 525.015 91.5013 526.147 90.8037 526.845C90.1062 527.542 88.9734 527.542 88.2758 526.845L84.4868 523.056C83.7892 522.353 83.7892 521.225 84.4868 520.528Z" fill="white"/>
<path fill-rule="evenodd" clip-rule="evenodd" d="M73.1196 524.311L76.9087 520.522C77.6062 519.825 78.739 519.825 79.4366 520.522C80.1341 521.22 80.1341 522.353 79.4366 523.05L75.6475 526.839C74.95 527.537 73.8171 527.537 73.1196 526.839C72.422 526.142 72.422 525.009 73.1196 524.311Z" fill="white"/>
<path fill-rule="evenodd" clip-rule="evenodd" d="M84.4868 512.95L88.2758 509.161C88.9734 508.463 90.1062 508.463 90.8037 509.161C91.5013 509.858 91.5013 510.991 90.8037 511.689L87.0147 515.478C86.3171 516.175 85.1843 516.175 84.4868 515.478C83.7892 514.78 83.7892 513.647 84.4868 512.95Z" fill="white"/>
<g filter="url(#filter2_d_3_197)">
<ellipse cx="550.459" cy="306.25" rx="23" ry="22.75" fill="#2196F3"/>
<path d="M571.459 306.25C571.459 317.689 562.078 327 550.459 327C538.84 327 529.459 317.689 529.459 306.25C529.459 294.811 538.84 285.5 550.459 285.5C562.078 285.5 571.459 294.811 571.459 306.25Z" stroke="white" stroke-width="4"/>
</g>
<path fill-rule="evenodd" clip-rule="evenodd" d="M550.459 313.793L542.734 318.5L544.778 309.621L537.959 303.651L546.948 302.871L550.459 294.5L553.97 302.871L562.959 303.651L556.14 309.621L558.184 318.5L550.459 313.793Z" fill="white"/>
<g filter="url(#filter3_d_3_197)">
<ellipse cx="480.459" cy="223.75" rx="16" ry="15.75" fill="#651FFF"/>
<path d="M494.459 223.75C494.459 231.314 488.221 237.5 480.459 237.5C472.697 237.5 466.459 231.314 466.459 223.75C466.459 216.186 472.697 210 480.459 210C488.221 210 494.459 216.186 494.459 223.75Z" stroke="white" stroke-width="4"/>
</g>
<path fill-rule="evenodd" clip-rule="evenodd" d="M473.959 221.944C473.959 221.516 474.176 221.119 474.547 220.905L480.459 218L486.371 220.905C486.711 221.119 486.959 221.516 486.959 221.944V227.778C486.959 228.45 486.402 229 485.721 229H475.197C474.516 229 473.959 228.45 473.959 227.778V221.944ZM480.459 224.875L485.432 221.667L480.459 219.222L475.486 221.667L480.459 224.875Z" fill="white"/>
<g filter="url(#filter4_d_3_197)">
<ellipse cx="464.459" cy="526.75" rx="52" ry="51.75" fill="#651FFF"/>
<path d="M514.459 526.75C514.459 554.217 492.082 576.5 464.459 576.5C436.836 576.5 414.459 554.217 414.459 526.75C414.459 499.283 436.836 477 464.459 477C492.082 477 514.459 499.283 514.459 526.75Z" stroke="white" stroke-width="4"/>
</g>
<path fill-rule="evenodd" clip-rule="evenodd" d="M472.24 524.125C472.117 524.074 471.994 524.022 471.881 523.95C471.162 523.54 470.627 522.831 470.453 521.979L468.552 509.894L468.532 509.298C468.532 508.569 468.953 508.251 469.559 507.963C469.631 507.933 469.703 507.902 469.775 507.871C470.514 507.522 471.018 507.07 471.018 506.197C471.018 504.133 470.35 504 469.148 504H459.769C458.568 504 457.9 504.123 457.9 506.197C457.9 507.07 458.403 507.522 459.143 507.871C459.215 507.902 459.287 507.922 459.359 507.963C459.965 508.261 460.386 508.579 460.386 509.298L460.365 509.894L458.465 521.979C458.29 522.831 457.756 523.54 457.037 523.95C456.924 524.022 456.801 524.074 456.677 524.125C454.654 525.172 452.959 527.288 452.959 529.742C452.959 531.374 453.318 531.929 454.52 531.929H462.81L464.043 550H464.865L466.097 531.929H474.397C475.599 531.929 475.959 531.446 475.959 529.742C475.959 527.288 474.264 525.172 472.24 524.125Z" fill="white"/>
<g filter="url(#filter5_d_3_197)">
<circle cx="341.209" cy="100.75" r="45.75" fill="#00BCD4"/>
<circle cx="341.209" cy="100.75" r="43.75" stroke="white" stroke-width="4"/>
</g>
<path fill-rule="evenodd" clip-rule="evenodd" d="M363.664 91.1183C363.664 87.0756 360.722 83.8234 357.086 83.8234C352.163 83.5898 347.141 83.5 342.012 83.5C341.746 83.5 341.479 83.5 341.213 83.5C340.946 83.5 340.679 83.5 340.413 83.5C335.293 83.5 330.263 83.5898 325.339 83.8234C321.712 83.8234 318.77 87.0936 318.77 91.1363C318.548 94.3346 318.451 97.5328 318.459 100.731C318.451 103.929 318.548 107.128 318.762 110.335C318.762 114.378 321.704 117.657 325.33 117.657C330.503 117.899 335.809 118.007 341.204 117.998C346.608 118.016 351.896 117.908 357.078 117.657C360.713 117.657 363.655 114.378 363.655 110.335C363.868 107.128 363.966 103.929 363.957 100.722C363.975 97.5238 363.877 94.3256 363.664 91.1183ZM336.857 109.544V91.8909L349.745 100.713L336.857 109.544Z" fill="white"/>
<g filter="url(#filter6_d_3_197)">
<ellipse cx="133.959" cy="187.75" rx="52" ry="51.75" fill="#2196F3"/>
<path d="M183.959 187.75C183.959 215.217 161.582 237.5 133.959 237.5C106.336 237.5 83.9589 215.217 83.9589 187.75C83.9589 160.283 106.336 138 133.959 138C161.582 138 183.959 160.283 183.959 187.75Z" stroke="white" stroke-width="4"/>
</g>
<path fill-rule="evenodd" clip-rule="evenodd" d="M159.113 169.331H149.377L143.55 163.466C143.55 163.466 143.521 163.438 143.507 163.438L143.478 163.409C142.613 162.546 141.444 162 140.118 162H128.002C126.589 162 125.334 162.604 124.454 163.567V163.581L118.757 169.331H108.805C106.122 169.331 103.959 171.43 103.959 174.104V203.156C103.959 205.829 106.122 208 108.805 208H159.113C161.781 208 163.959 205.829 163.959 203.156V174.104C163.959 171.43 161.781 169.331 159.113 169.331ZM133.959 200.741C126.618 200.741 120.632 194.761 120.632 187.429C120.632 180.084 126.618 174.118 133.959 174.118C141.315 174.118 147.286 180.084 147.286 187.429C147.286 194.761 141.315 200.741 133.959 200.741ZM158.204 177.022C157.093 177.022 156.185 176.116 156.185 174.995C156.185 173.874 157.093 172.968 158.204 172.968C159.315 172.968 160.223 173.874 160.223 174.995C160.223 176.116 159.315 177.022 158.204 177.022Z" fill="white"/>
<path fill-rule="evenodd" clip-rule="evenodd" d="M133.959 177.367C128.392 177.367 123.892 181.866 123.892 187.429C123.892 192.978 128.392 197.492 133.959 197.492C139.512 197.492 144.026 192.993 144.026 187.429C144.026 181.866 139.512 177.367 133.959 177.367Z" fill="white"/>
<defs>
<filter id="filter0_d_3_197" x="87.4589" y="358.5" width="178" height="177.5" filterUnits="userSpaceOnUse" color-interpolation-filters="sRGB">
<feFlood flood-opacity="0" result="BackgroundImageFix"/>
<feColorMatrix in="SourceAlpha" type="matrix" values="0 0 0 0 0 0 0 0 0 0 0 0 0 0 0 0 0 0 127 0" result="hardAlpha"/>
<feMorphology radius="9" operator="dilate" in="SourceAlpha" result="effect1_dropShadow_3_197"/>
<feOffset dy="3"/>
<feGaussianBlur stdDeviation="24.5"/>
<feColorMatrix type="matrix" values="0 0 0 0 0 0 0 0 0 0 0 0 0 0 0 0 0 0 0.06 0"/>
<feBlend mode="normal" in2="BackgroundImageFix" result="effect1_dropShadow_3_197"/>
<feBlend mode="normal" in="SourceGraphic" in2="effect1_dropShadow_3_197" result="shape"/>
</filter>
<filter id="filter1_d_3_197" x="0.958862" y="440" width="162" height="161.5" filterUnits="userSpaceOnUse" color-interpolation-filters="sRGB">
<feFlood flood-opacity="0" result="BackgroundImageFix"/>
<feColorMatrix in="SourceAlpha" type="matrix" values="0 0 0 0 0 0 0 0 0 0 0 0 0 0 0 0 0 0 127 0" result="hardAlpha"/>
<feMorphology radius="9" operator="dilate" in="SourceAlpha" result="effect1_dropShadow_3_197"/>
<feOffset dy="3"/>
<feGaussianBlur stdDeviation="24.5"/>
<feColorMatrix type="matrix" values="0 0 0 0 0 0 0 0 0 0 0 0 0 0 0 0 0 0 0.06 0"/>
<feBlend mode="normal" in2="BackgroundImageFix" result="effect1_dropShadow_3_197"/>
<feBlend mode="normal" in="SourceGraphic" in2="effect1_dropShadow_3_197" result="shape"/>
</filter>
<filter id="filter2_d_3_197" x="469.459" y="228.5" width="162" height="161.5" filterUnits="userSpaceOnUse" color-interpolation-filters="sRGB">
<feFlood flood-opacity="0" result="BackgroundImageFix"/>
<feColorMatrix in="SourceAlpha" type="matrix" values="0 0 0 0 0 0 0 0 0 0 0 0 0 0 0 0 0 0 127 0" result="hardAlpha"/>
<feMorphology radius="9" operator="dilate" in="SourceAlpha" result="effect1_dropShadow_3_197"/>
<feOffset dy="3"/>
<feGaussianBlur stdDeviation="24.5"/>
<feColorMatrix type="matrix" values="0 0 0 0 0 0 0 0 0 0 0 0 0 0 0 0 0 0 0.06 0"/>
<feBlend mode="normal" in2="BackgroundImageFix" result="effect1_dropShadow_3_197"/>
<feBlend mode="normal" in="SourceGraphic" in2="effect1_dropShadow_3_197" result="shape"/>
</filter>
<filter id="filter3_d_3_197" x="406.459" y="153" width="148" height="147.5" filterUnits="userSpaceOnUse" color-interpolation-filters="sRGB">
<feFlood flood-opacity="0" result="BackgroundImageFix"/>
<feColorMatrix in="SourceAlpha" type="matrix" values="0 0 0 0 0 0 0 0 0 0 0 0 0 0 0 0 0 0 127 0" result="hardAlpha"/>
<feMorphology radius="9" operator="dilate" in="SourceAlpha" result="effect1_dropShadow_3_197"/>
<feOffset dy="3"/>
<feGaussianBlur stdDeviation="24.5"/>
<feColorMatrix type="matrix" values="0 0 0 0 0 0 0 0 0 0 0 0 0 0 0 0 0 0 0.06 0"/>
<feBlend mode="normal" in2="BackgroundImageFix" result="effect1_dropShadow_3_197"/>
<feBlend mode="normal" in="SourceGraphic" in2="effect1_dropShadow_3_197" result="shape"/>
</filter>
<filter id="filter4_d_3_197" x="354.459" y="420" width="220" height="219.5" filterUnits="userSpaceOnUse" color-interpolation-filters="sRGB">
<feFlood flood-opacity="0" result="BackgroundImageFix"/>
<feColorMatrix in="SourceAlpha" type="matrix" values="0 0 0 0 0 0 0 0 0 0 0 0 0 0 0 0 0 0 127 0" result="hardAlpha"/>
<feMorphology radius="9" operator="dilate" in="SourceAlpha" result="effect1_dropShadow_3_197"/>
<feOffset dy="3"/>
<feGaussianBlur stdDeviation="24.5"/>
<feColorMatrix type="matrix" values="0 0 0 0 0 0 0 0 0 0 0 0 0 0 0 0 0 0 0.06 0"/>
<feBlend mode="normal" in2="BackgroundImageFix" result="effect1_dropShadow_3_197"/>
<feBlend mode="normal" in="SourceGraphic" in2="effect1_dropShadow_3_197" result="shape"/>
</filter>
<filter id="filter5_d_3_197" x="237.459" y="0" width="207.5" height="207.5" filterUnits="userSpaceOnUse" color-interpolation-filters="sRGB">
<feFlood flood-opacity="0" result="BackgroundImageFix"/>
<feColorMatrix in="SourceAlpha" type="matrix" values="0 0 0 0 0 0 0 0 0 0 0 0 0 0 0 0 0 0 127 0" result="hardAlpha"/>
<feMorphology radius="9" operator="dilate" in="SourceAlpha" result="effect1_dropShadow_3_197"/>
<feOffset dy="3"/>
<feGaussianBlur stdDeviation="24.5"/>
<feColorMatrix type="matrix" values="0 0 0 0 0 0 0 0 0 0 0 0 0 0 0 0 0 0 0.06 0"/>
<feBlend mode="normal" in2="BackgroundImageFix" result="effect1_dropShadow_3_197"/>
<feBlend mode="normal" in="SourceGraphic" in2="effect1_dropShadow_3_197" result="shape"/>
</filter>
<filter id="filter6_d_3_197" x="23.9589" y="81" width="220" height="219.5" filterUnits="userSpaceOnUse" color-interpolation-filters="sRGB">
<feFlood flood-opacity="0" result="BackgroundImageFix"/>
<feColorMatrix in="SourceAlpha" type="matrix" values="0 0 0 0 0 0 0 0 0 0 0 0 0 0 0 0 0 0 127 0" result="hardAlpha"/>
<feMorphology radius="9" operator="dilate" in="SourceAlpha" result="effect1_dropShadow_3_197"/>
<feOffset dy="3"/>
<feGaussianBlur stdDeviation="24.5"/>
<feColorMatrix type="matrix" values="0 0 0 0 0 0 0 0 0 0 0 0 0 0 0 0 0 0 0.06 0"/>
<feBlend mode="normal" in2="BackgroundImageFix" result="effect1_dropShadow_3_197"/>
<feBlend mode="normal" in="SourceGraphic" in2="effect1_dropShadow_3_197" result="shape"/>
</filter>
</defs>
</svg>
