<svg width="49" height="49" viewBox="0 0 49 49" fill="none" xmlns="http://www.w3.org/2000/svg">
<rect x="24.3102" y="0.778809" width="34" height="34" rx="6" transform="rotate(45 24.3102 0.778809)" fill="#BBDEFB"/>
<path fill-rule="evenodd" clip-rule="evenodd" d="M19.3901 22.5406L17.7102 24.2204L23.1102 29.6204L35.1102 17.6204L33.4303 15.9405L23.1102 26.2003L19.3901 22.5406ZM33.9102 24.8204C33.9102 30.1003 29.59 34.4204 24.3102 34.4204C19.0304 34.4204 14.7102 30.1003 14.7102 24.8204C14.7102 19.5405 19.0303 15.2204 24.3102 15.2204C25.2102 15.2204 26.1102 15.3405 26.9504 15.5805L28.8102 13.7204C27.4303 13.1204 25.9303 12.8204 24.3102 12.8204C17.7102 12.8204 12.3102 18.2204 12.3102 24.8204C12.3102 31.4204 17.7102 36.8204 24.3102 36.8204C30.9102 36.8204 36.3102 31.4204 36.3102 24.8204H33.9102Z" fill="#2196F3"/>
</svg>
