<svg width="49" height="50" viewBox="0 0 49 50" fill="none" xmlns="http://www.w3.org/2000/svg">
<path d="M20.0949 5.19674C22.438 2.8536 26.237 2.8536 28.5802 5.19674L44.1365 20.7531C46.4797 23.0962 46.4797 26.8952 44.1365 29.2384L28.5802 44.7947C26.237 47.1379 22.438 47.1379 20.0949 44.7947L4.53854 29.2384C2.19539 26.8952 2.19539 23.0962 4.53854 20.7531L20.0949 5.19674Z" fill="#B2EBF2"/>
<path fill-rule="evenodd" clip-rule="evenodd" d="M24.3375 20.71C21.9802 20.71 20.0518 22.6386 20.0518 24.9957C20.0518 27.3531 21.9802 29.2814 24.3375 29.2814C26.6949 29.2814 28.6232 27.3531 28.6232 24.9957C28.6232 22.6386 26.6949 20.71 24.3375 20.71ZM34.5663 23.8529C34.0518 19.1102 30.2231 15.2815 25.4804 14.7672V12.9957H23.1947V14.7672C18.452 15.2814 14.6233 19.1101 14.1088 23.8528H12.3375V26.1386H14.1087C14.6232 30.8813 18.4518 34.71 23.1946 35.2245V36.9957H25.4803V35.2245C30.223 34.71 34.0517 30.8814 34.5663 26.1386H36.3375V23.8529H34.5663ZM24.3375 32.9957C19.9373 32.9957 16.3375 29.3958 16.3375 24.9957C16.3375 20.5956 19.9373 16.9957 24.3375 16.9957C28.7376 16.9957 32.3375 20.5956 32.3375 24.9957C32.3375 29.3958 28.7376 32.9957 24.3375 32.9957Z" fill="#00BCD4"/>
</svg>
