<svg width="247" height="58" viewBox="0 0 247 58" fill="none" xmlns="http://www.w3.org/2000/svg">
<g clip-path="url(#clip0_397_267)">
<path d="M5.82301 24.2053V9.98793C5.82301 9.95546 5.83272 9.92433 5.85 9.90137C5.86729 9.87841 5.89072 9.86552 5.91517 9.86552H9.12101C9.52087 9.86552 9.90429 9.65456 10.187 9.27905C10.4697 8.90354 10.6285 8.39425 10.6285 7.8632C10.6285 7.33215 10.4697 6.82285 10.187 6.44734C9.90429 6.07183 9.52087 5.86088 9.12101 5.86088H5.91517C5.50571 5.85858 5.09994 5.96357 4.72107 6.16983C4.34221 6.3761 3.9977 6.67959 3.70725 7.06294C3.41681 7.44628 3.18614 7.90195 3.02845 8.40387C2.87076 8.90578 2.78914 9.44407 2.78829 9.98793V24.2053C2.78626 24.46 2.71088 24.7041 2.57763 24.8873L0.444766 27.7115C0.30385 27.8969 0.19199 28.1175 0.11565 28.3606C0.03931 28.6037 0 28.8646 0 29.128C0 29.3914 0.03931 29.6523 0.11565 29.8954C0.19199 30.1385 0.30385 30.3592 0.444766 30.5445L2.57763 33.3862C2.71065 33.5625 2.78629 33.8011 2.78829 34.0507V48.268C2.78828 49.3635 3.11543 50.4141 3.69794 51.1894C4.28046 51.9648 5.07075 52.4016 5.89542 52.4039H9.10133C9.5011 52.4039 9.88453 52.1929 10.1672 51.8174C10.45 51.4419 10.6088 50.9326 10.6088 50.4016C10.6088 49.8705 10.45 49.3612 10.1672 48.9857C9.88453 48.6102 9.5011 48.3993 9.10133 48.3993H5.89542C5.87039 48.397 5.84693 48.3822 5.82982 48.3579C5.8127 48.3335 5.80321 48.3014 5.80327 48.268V34.0507C5.7961 32.7403 5.404 31.4854 4.7105 30.5532L3.64407 29.1367L4.76316 27.7203C5.4478 26.7768 5.82808 25.5156 5.82301 24.2053Z" fill="#1C98F3"/>
<path d="M66.4387 46.0455L44.7008 8.11276C43.7556 6.46347 41.6624 5.89839 40.0253 6.8506C38.3883 7.80282 37.8274 9.91175 38.7725 11.561L60.5104 49.4938C61.4556 51.1431 63.5489 51.7081 65.1859 50.7559C66.823 49.8037 67.3838 47.6948 66.4387 46.0455Z" fill="white"/>
<path d="M63.587 44.7817H37.9169C36.0266 44.7817 34.4942 46.3256 34.4942 48.23C34.4942 50.1344 36.0266 51.6783 37.9169 51.6783H63.587C65.4773 51.6783 67.0097 50.1344 67.0097 48.23C67.0097 46.3256 65.4773 44.7817 63.587 44.7817Z" fill="white"/>
<path d="M38.0101 8.14598L15.7627 46.9678C14.8175 48.6171 15.3784 50.726 17.0155 51.6782C18.6525 52.6305 20.7458 52.0654 21.6909 50.4161L43.9383 11.5943C44.8835 9.94497 44.3226 7.83604 42.6856 6.88382C41.0485 5.93161 38.9552 6.49669 38.0101 8.14598Z" fill="white"/>
<path d="M54.896 7.41669L32.4772 46.5377C31.296 48.5989 31.9969 51.2346 34.0428 52.4246C36.0887 53.6146 38.7048 52.9084 39.886 50.8472L62.3049 11.7262C63.4861 9.66499 62.7851 7.02934 60.7392 5.83931C58.6933 4.64928 56.0773 5.3555 54.896 7.41669Z" fill="#1C98F3"/>
<path d="M54.896 7.41669L32.4772 46.5377C31.296 48.5989 31.9969 51.2346 34.0428 52.4246C36.0887 53.6146 38.7048 52.9084 39.886 50.8472L62.3049 11.7262C63.4861 9.66499 62.7851 7.02934 60.7392 5.83931C58.6933 4.64928 56.0773 5.3555 54.896 7.41669Z" stroke="#121212" stroke-width="2"/>
<path d="M81.7367 27.7115L79.6039 24.8785C79.4699 24.6995 79.3942 24.4577 79.3932 24.2052V9.98789C79.3915 8.89404 79.0635 7.84565 78.4813 7.07218C77.8989 6.2987 77.1096 5.86315 76.2861 5.86084H73.0802C72.8823 5.86084 72.6862 5.91263 72.5033 6.01325C72.3204 6.11388 72.1543 6.26137 72.0143 6.44731C71.8743 6.63324 71.7632 6.85397 71.6875 7.09691C71.6117 7.33984 71.5728 7.60021 71.5728 7.86316C71.5728 8.12611 71.6117 8.38648 71.6875 8.62941C71.7632 8.87235 71.8743 9.09308 72.0143 9.27901C72.1543 9.46494 72.3204 9.61243 72.5033 9.71306C72.6862 9.81368 72.8823 9.86548 73.0802 9.86548H76.2861C76.3105 9.86548 76.334 9.87837 76.3512 9.90133C76.3685 9.92429 76.3783 9.95543 76.3783 9.98789V24.2052C76.3854 25.5157 76.7775 26.7706 77.4711 27.7027L78.5375 29.1105L77.4776 30.5444C76.7841 31.4766 76.392 32.7315 76.3849 34.0419V48.268C76.3849 48.3013 76.3754 48.3335 76.3583 48.3578C76.3411 48.3822 76.3177 48.3969 76.2927 48.3992H73.0868C72.687 48.3992 72.3036 48.6101 72.0209 48.9856C71.7382 49.3611 71.5793 49.8704 71.5793 50.4015C71.5793 50.9325 71.7382 51.4418 72.0209 51.8173C72.3036 52.1929 72.687 52.4038 73.0868 52.4038H76.2927C77.1173 52.4015 77.9076 51.9648 78.4902 51.1894C79.0727 50.414 79.3998 49.3634 79.3998 48.268V34.0507C79.4035 33.799 79.4788 33.5585 79.6105 33.3774L81.7433 30.5444C81.8838 30.3585 81.9952 30.1374 82.071 29.894C82.1467 29.6505 82.1855 29.3896 82.1848 29.1261C82.1842 28.8627 82.1443 28.6021 82.0674 28.3592C81.9905 28.1164 81.8781 27.8962 81.7367 27.7115Z" fill="#1C98F3"/>
</g>
<path d="M104.691 8.7832L97.7305 30H92.123L101.633 4.40625H105.201L104.691 8.7832ZM110.475 30L103.496 8.7832L102.934 4.40625H106.537L116.1 30H110.475ZM110.158 20.4727V24.6035H96.6406V20.4727H110.158ZM122.551 15.041V30H117.488V10.9805H122.234L122.551 15.041ZM121.812 19.8223H120.441C120.441 18.416 120.623 17.1504 120.986 16.0254C121.35 14.8887 121.859 13.9219 122.516 13.125C123.172 12.3164 123.951 11.7012 124.854 11.2793C125.768 10.8457 126.787 10.6289 127.912 10.6289C128.803 10.6289 129.617 10.7578 130.355 11.0156C131.094 11.2734 131.727 11.6836 132.254 12.2461C132.793 12.8086 133.203 13.5527 133.484 14.4785C133.777 15.4043 133.924 16.5352 133.924 17.8711V30H128.826V17.8535C128.826 17.0098 128.709 16.3535 128.475 15.8848C128.24 15.416 127.895 15.0879 127.438 14.9004C126.992 14.7012 126.441 14.6016 125.785 14.6016C125.105 14.6016 124.514 14.7363 124.01 15.0059C123.518 15.2754 123.107 15.6504 122.779 16.1309C122.463 16.5996 122.223 17.1504 122.059 17.7832C121.895 18.416 121.812 19.0957 121.812 19.8223ZM148.039 25.7109V17.2383C148.039 16.6289 147.939 16.1074 147.74 15.6738C147.541 15.2285 147.23 14.8828 146.809 14.6367C146.398 14.3906 145.865 14.2676 145.209 14.2676C144.646 14.2676 144.16 14.3672 143.75 14.5664C143.34 14.7539 143.023 15.0293 142.801 15.3926C142.578 15.7441 142.467 16.1602 142.467 16.6406H137.404C137.404 15.832 137.592 15.0645 137.967 14.3379C138.342 13.6113 138.887 12.9727 139.602 12.4219C140.316 11.8594 141.166 11.4199 142.15 11.1035C143.146 10.7871 144.26 10.6289 145.49 10.6289C146.967 10.6289 148.279 10.875 149.428 11.3672C150.576 11.8594 151.479 12.5977 152.135 13.582C152.803 14.5664 153.137 15.7969 153.137 17.2734V25.4121C153.137 26.4551 153.201 27.3105 153.33 27.9785C153.459 28.6348 153.646 29.209 153.893 29.7012V30H148.777C148.531 29.4844 148.344 28.8398 148.215 28.0664C148.098 27.2812 148.039 26.4961 148.039 25.7109ZM148.707 18.416L148.742 21.2812H145.912C145.244 21.2812 144.664 21.3574 144.172 21.5098C143.68 21.6621 143.275 21.8789 142.959 22.1602C142.643 22.4297 142.408 22.7461 142.256 23.1094C142.115 23.4727 142.045 23.8711 142.045 24.3047C142.045 24.7383 142.145 25.1309 142.344 25.4824C142.543 25.8223 142.83 26.0918 143.205 26.291C143.58 26.4785 144.02 26.5723 144.523 26.5723C145.285 26.5723 145.947 26.4199 146.51 26.1152C147.072 25.8105 147.506 25.4355 147.811 24.9902C148.127 24.5449 148.291 24.123 148.303 23.7246L149.639 25.8691C149.451 26.3496 149.193 26.8477 148.865 27.3633C148.549 27.8789 148.145 28.3652 147.652 28.8223C147.16 29.2676 146.568 29.6367 145.877 29.9297C145.186 30.2109 144.365 30.3516 143.416 30.3516C142.209 30.3516 141.113 30.1113 140.129 29.6309C139.156 29.1387 138.383 28.4648 137.809 27.6094C137.246 26.7422 136.965 25.7578 136.965 24.6562C136.965 23.6602 137.152 22.7754 137.527 22.002C137.902 21.2285 138.453 20.5781 139.18 20.0508C139.918 19.5117 140.838 19.1074 141.939 18.8379C143.041 18.5566 144.318 18.416 145.771 18.416H148.707ZM162.383 3V30H157.303V3H162.383ZM172.209 27.8555L177.254 10.9805H182.686L175.039 32.8652C174.875 33.3457 174.652 33.8613 174.371 34.4121C174.102 34.9629 173.732 35.4844 173.264 35.9766C172.807 36.4805 172.227 36.8906 171.523 37.207C170.832 37.5234 169.982 37.6816 168.975 37.6816C168.494 37.6816 168.102 37.6523 167.797 37.5938C167.492 37.5352 167.129 37.4531 166.707 37.3477V33.6387C166.836 33.6387 166.971 33.6387 167.111 33.6387C167.252 33.6504 167.387 33.6562 167.516 33.6562C168.184 33.6562 168.729 33.5801 169.15 33.4277C169.572 33.2754 169.912 33.041 170.17 32.7246C170.428 32.4199 170.633 32.0215 170.785 31.5293L172.209 27.8555ZM170.1 10.9805L174.23 24.7617L174.951 30.123L171.506 30.4922L164.668 10.9805H170.1ZM194.023 10.9805V14.5664H182.949V10.9805H194.023ZM185.691 6.28711H190.754V24.2695C190.754 24.8203 190.824 25.2422 190.965 25.5352C191.117 25.8281 191.34 26.0332 191.633 26.1504C191.926 26.2559 192.295 26.3086 192.74 26.3086C193.057 26.3086 193.338 26.2969 193.584 26.2734C193.842 26.2383 194.059 26.2031 194.234 26.168L194.252 29.8945C193.818 30.0352 193.35 30.1465 192.846 30.2285C192.342 30.3105 191.785 30.3516 191.176 30.3516C190.062 30.3516 189.09 30.1699 188.258 29.8066C187.438 29.4316 186.805 28.834 186.359 28.0137C185.914 27.1934 185.691 26.1152 185.691 24.7793V6.28711ZM202.25 10.9805V30H197.17V10.9805H202.25ZM196.854 6.02344C196.854 5.28516 197.111 4.67578 197.627 4.19531C198.143 3.71484 198.834 3.47461 199.701 3.47461C200.557 3.47461 201.242 3.71484 201.758 4.19531C202.285 4.67578 202.549 5.28516 202.549 6.02344C202.549 6.76172 202.285 7.37109 201.758 7.85156C201.242 8.33203 200.557 8.57227 199.701 8.57227C198.834 8.57227 198.143 8.33203 197.627 7.85156C197.111 7.37109 196.854 6.76172 196.854 6.02344ZM211.092 4.40625L215.908 13.3359L220.725 4.40625H226.754L219.318 17.0977L226.947 30H220.865L215.908 20.8945L210.951 30H204.834L212.48 17.0977L205.027 4.40625H211.092ZM239.551 25.7109V17.2383C239.551 16.6289 239.451 16.1074 239.252 15.6738C239.053 15.2285 238.742 14.8828 238.32 14.6367C237.91 14.3906 237.377 14.2676 236.721 14.2676C236.158 14.2676 235.672 14.3672 235.262 14.5664C234.852 14.7539 234.535 15.0293 234.312 15.3926C234.09 15.7441 233.979 16.1602 233.979 16.6406H228.916C228.916 15.832 229.104 15.0645 229.479 14.3379C229.854 13.6113 230.398 12.9727 231.113 12.4219C231.828 11.8594 232.678 11.4199 233.662 11.1035C234.658 10.7871 235.771 10.6289 237.002 10.6289C238.479 10.6289 239.791 10.875 240.939 11.3672C242.088 11.8594 242.99 12.5977 243.646 13.582C244.314 14.5664 244.648 15.7969 244.648 17.2734V25.4121C244.648 26.4551 244.713 27.3105 244.842 27.9785C244.971 28.6348 245.158 29.209 245.404 29.7012V30H240.289C240.043 29.4844 239.855 28.8398 239.727 28.0664C239.609 27.2812 239.551 26.4961 239.551 25.7109ZM240.219 18.416L240.254 21.2812H237.424C236.756 21.2812 236.176 21.3574 235.684 21.5098C235.191 21.6621 234.787 21.8789 234.471 22.1602C234.154 22.4297 233.92 22.7461 233.768 23.1094C233.627 23.4727 233.557 23.8711 233.557 24.3047C233.557 24.7383 233.656 25.1309 233.855 25.4824C234.055 25.8223 234.342 26.0918 234.717 26.291C235.092 26.4785 235.531 26.5723 236.035 26.5723C236.797 26.5723 237.459 26.4199 238.021 26.1152C238.584 25.8105 239.018 25.4355 239.322 24.9902C239.639 24.5449 239.803 24.123 239.814 23.7246L241.15 25.8691C240.963 26.3496 240.705 26.8477 240.377 27.3633C240.061 27.8789 239.656 28.3652 239.164 28.8223C238.672 29.2676 238.08 29.6367 237.389 29.9297C236.697 30.2109 235.877 30.3516 234.928 30.3516C233.721 30.3516 232.625 30.1113 231.641 29.6309C230.668 29.1387 229.895 28.4648 229.32 27.6094C228.758 26.7422 228.477 25.7578 228.477 24.6562C228.477 23.6602 228.664 22.7754 229.039 22.002C229.414 21.2285 229.965 20.5781 230.691 20.0508C231.43 19.5117 232.35 19.1074 233.451 18.8379C234.553 18.5566 235.83 18.416 237.283 18.416H240.219Z" fill="white"/>
<path d="M102.773 49.1797C102.773 50.4661 102.534 51.5417 102.055 52.4062C101.576 53.2656 100.88 53.9141 99.9688 54.3516C99.0573 54.7839 97.9583 55 96.6719 55H93.5V43.5781H97.0156C98.1979 43.5781 99.2188 43.7917 100.078 44.2188C100.938 44.6406 101.602 45.2682 102.07 46.1016C102.539 46.9297 102.773 47.9557 102.773 49.1797ZM100.82 49.2344C100.82 48.2969 100.672 47.526 100.375 46.9219C100.083 46.3177 99.651 45.8698 99.0781 45.5781C98.5104 45.2812 97.8099 45.1328 96.9766 45.1328H95.375V53.4297H96.7031C98.0833 53.4297 99.1146 53.0781 99.7969 52.375C100.479 51.6719 100.82 50.625 100.82 49.2344ZM110.438 46.1875C111.531 46.1875 112.357 46.4297 112.914 46.9141C113.477 47.3984 113.758 48.1536 113.758 49.1797V55H112.453L112.102 53.7734H112.039C111.794 54.0859 111.542 54.3438 111.281 54.5469C111.021 54.75 110.719 54.901 110.375 55C110.036 55.1042 109.622 55.1562 109.133 55.1562C108.617 55.1562 108.156 55.0625 107.75 54.875C107.344 54.6823 107.023 54.3906 106.789 54C106.555 53.6094 106.438 53.1146 106.438 52.5156C106.438 51.625 106.768 50.9557 107.43 50.5078C108.096 50.0599 109.102 49.8125 110.445 49.7656L111.945 49.7109V49.2578C111.945 48.6589 111.805 48.2318 111.523 47.9766C111.247 47.7214 110.857 47.5938 110.352 47.5938C109.919 47.5938 109.5 47.6562 109.094 47.7812C108.688 47.9062 108.292 48.0599 107.906 48.2422L107.312 46.9453C107.734 46.7214 108.214 46.5391 108.75 46.3984C109.292 46.2578 109.854 46.1875 110.438 46.1875ZM111.938 50.8672L110.82 50.9062C109.904 50.9375 109.26 51.0938 108.891 51.375C108.521 51.6562 108.336 52.0417 108.336 52.5312C108.336 52.9583 108.464 53.2708 108.719 53.4688C108.974 53.6615 109.31 53.7578 109.727 53.7578C110.362 53.7578 110.888 53.5781 111.305 53.2188C111.727 52.8542 111.938 52.3203 111.938 51.6172V50.8672ZM121.547 53.6719C121.786 53.6719 122.023 53.651 122.258 53.6094C122.492 53.5625 122.706 53.5078 122.898 53.4453V54.8359C122.695 54.9245 122.432 55 122.109 55.0625C121.786 55.125 121.451 55.1562 121.102 55.1562C120.612 55.1562 120.172 55.0755 119.781 54.9141C119.391 54.7474 119.081 54.4635 118.852 54.0625C118.622 53.6615 118.508 53.1068 118.508 52.3984V47.75H117.328V46.9297L118.594 46.2812L119.195 44.4297H120.352V46.3516H122.828V47.75H120.352V52.375C120.352 52.8125 120.461 53.138 120.68 53.3516C120.898 53.5651 121.188 53.6719 121.547 53.6719ZM130.047 46.1875C131.141 46.1875 131.966 46.4297 132.523 46.9141C133.086 47.3984 133.367 48.1536 133.367 49.1797V55H132.062L131.711 53.7734H131.648C131.404 54.0859 131.151 54.3438 130.891 54.5469C130.63 54.75 130.328 54.901 129.984 55C129.646 55.1042 129.232 55.1562 128.742 55.1562C128.227 55.1562 127.766 55.0625 127.359 54.875C126.953 54.6823 126.633 54.3906 126.398 54C126.164 53.6094 126.047 53.1146 126.047 52.5156C126.047 51.625 126.378 50.9557 127.039 50.5078C127.706 50.0599 128.711 49.8125 130.055 49.7656L131.555 49.7109V49.2578C131.555 48.6589 131.414 48.2318 131.133 47.9766C130.857 47.7214 130.466 47.5938 129.961 47.5938C129.529 47.5938 129.109 47.6562 128.703 47.7812C128.297 47.9062 127.901 48.0599 127.516 48.2422L126.922 46.9453C127.344 46.7214 127.823 46.5391 128.359 46.3984C128.901 46.2578 129.464 46.1875 130.047 46.1875ZM131.547 50.8672L130.43 50.9062C129.513 50.9375 128.87 51.0938 128.5 51.375C128.13 51.6562 127.945 52.0417 127.945 52.5312C127.945 52.9583 128.073 53.2708 128.328 53.4688C128.583 53.6615 128.919 53.7578 129.336 53.7578C129.971 53.7578 130.497 53.5781 130.914 53.2188C131.336 52.8542 131.547 52.3203 131.547 51.6172V50.8672ZM147.312 53.6719C147.552 53.6719 147.789 53.651 148.023 53.6094C148.258 53.5625 148.471 53.5078 148.664 53.4453V54.8359C148.461 54.9245 148.198 55 147.875 55.0625C147.552 55.125 147.216 55.1562 146.867 55.1562C146.378 55.1562 145.938 55.0755 145.547 54.9141C145.156 54.7474 144.846 54.4635 144.617 54.0625C144.388 53.6615 144.273 53.1068 144.273 52.3984V47.75H143.094V46.9297L144.359 46.2812L144.961 44.4297H146.117V46.3516H148.594V47.75H146.117V52.375C146.117 52.8125 146.227 53.138 146.445 53.3516C146.664 53.5651 146.953 53.6719 147.312 53.6719ZM160.078 50.6562C160.078 51.375 159.984 52.013 159.797 52.5703C159.609 53.1276 159.336 53.599 158.977 53.9844C158.617 54.3646 158.185 54.6562 157.68 54.8594C157.174 55.0573 156.604 55.1562 155.969 55.1562C155.375 55.1562 154.831 55.0573 154.336 54.8594C153.841 54.6562 153.411 54.3646 153.047 53.9844C152.688 53.599 152.409 53.1276 152.211 52.5703C152.013 52.013 151.914 51.375 151.914 50.6562C151.914 49.7031 152.078 48.8958 152.406 48.2344C152.74 47.5677 153.214 47.0599 153.828 46.7109C154.443 46.362 155.174 46.1875 156.023 46.1875C156.82 46.1875 157.523 46.362 158.133 46.7109C158.742 47.0599 159.219 47.5677 159.562 48.2344C159.906 48.901 160.078 49.7083 160.078 50.6562ZM153.805 50.6562C153.805 51.2865 153.88 51.8255 154.031 52.2734C154.188 52.7214 154.427 53.0651 154.75 53.3047C155.073 53.5391 155.49 53.6562 156 53.6562C156.51 53.6562 156.927 53.5391 157.25 53.3047C157.573 53.0651 157.81 52.7214 157.961 52.2734C158.112 51.8255 158.188 51.2865 158.188 50.6562C158.188 50.026 158.112 49.4922 157.961 49.0547C157.81 48.612 157.573 48.276 157.25 48.0469C156.927 47.8125 156.508 47.6953 155.992 47.6953C155.232 47.6953 154.677 47.9505 154.328 48.4609C153.979 48.9714 153.805 49.7031 153.805 50.6562ZM177.125 51.8906C177.125 52.5677 176.958 53.151 176.625 53.6406C176.297 54.1302 175.823 54.5052 175.203 54.7656C174.589 55.026 173.854 55.1562 173 55.1562C172.583 55.1562 172.185 55.1328 171.805 55.0859C171.424 55.0391 171.065 54.9714 170.727 54.8828C170.393 54.7891 170.089 54.6771 169.812 54.5469V52.7812C170.276 52.9844 170.794 53.1693 171.367 53.3359C171.94 53.4974 172.523 53.5781 173.117 53.5781C173.602 53.5781 174.003 53.5156 174.32 53.3906C174.643 53.2604 174.883 53.0781 175.039 52.8438C175.195 52.6042 175.273 52.3255 175.273 52.0078C175.273 51.6693 175.182 51.3828 175 51.1484C174.818 50.9141 174.542 50.7005 174.172 50.5078C173.807 50.3099 173.349 50.099 172.797 49.875C172.422 49.724 172.062 49.5521 171.719 49.3594C171.38 49.1667 171.078 48.9401 170.812 48.6797C170.547 48.4193 170.336 48.112 170.18 47.7578C170.029 47.3984 169.953 46.9766 169.953 46.4922C169.953 45.8464 170.107 45.2943 170.414 44.8359C170.727 44.3776 171.164 44.026 171.727 43.7812C172.294 43.5365 172.956 43.4141 173.711 43.4141C174.31 43.4141 174.872 43.4766 175.398 43.6016C175.93 43.7266 176.451 43.9036 176.961 44.1328L176.367 45.6406C175.898 45.4479 175.443 45.2943 175 45.1797C174.562 45.0651 174.115 45.0078 173.656 45.0078C173.26 45.0078 172.924 45.0677 172.648 45.1875C172.372 45.3073 172.161 45.4766 172.016 45.6953C171.875 45.9089 171.805 46.1641 171.805 46.4609C171.805 46.7943 171.885 47.0755 172.047 47.3047C172.214 47.5286 172.469 47.7344 172.812 47.9219C173.161 48.1094 173.609 48.3177 174.156 48.5469C174.786 48.8073 175.32 49.0807 175.758 49.3672C176.201 49.6536 176.539 49.9974 176.773 50.3984C177.008 50.7943 177.125 51.2917 177.125 51.8906ZM188.797 50.6562C188.797 51.375 188.703 52.013 188.516 52.5703C188.328 53.1276 188.055 53.599 187.695 53.9844C187.336 54.3646 186.904 54.6562 186.398 54.8594C185.893 55.0573 185.323 55.1562 184.688 55.1562C184.094 55.1562 183.549 55.0573 183.055 54.8594C182.56 54.6562 182.13 54.3646 181.766 53.9844C181.406 53.599 181.128 53.1276 180.93 52.5703C180.732 52.013 180.633 51.375 180.633 50.6562C180.633 49.7031 180.797 48.8958 181.125 48.2344C181.458 47.5677 181.932 47.0599 182.547 46.7109C183.161 46.362 183.893 46.1875 184.742 46.1875C185.539 46.1875 186.242 46.362 186.852 46.7109C187.461 47.0599 187.938 47.5677 188.281 48.2344C188.625 48.901 188.797 49.7083 188.797 50.6562ZM182.523 50.6562C182.523 51.2865 182.599 51.8255 182.75 52.2734C182.906 52.7214 183.146 53.0651 183.469 53.3047C183.792 53.5391 184.208 53.6562 184.719 53.6562C185.229 53.6562 185.646 53.5391 185.969 53.3047C186.292 53.0651 186.529 52.7214 186.68 52.2734C186.831 51.8255 186.906 51.2865 186.906 50.6562C186.906 50.026 186.831 49.4922 186.68 49.0547C186.529 48.612 186.292 48.276 185.969 48.0469C185.646 47.8125 185.227 47.6953 184.711 47.6953C183.951 47.6953 183.396 47.9505 183.047 48.4609C182.698 48.9714 182.523 49.7031 182.523 50.6562ZM194.75 55H192.906V42.8438H194.75V55ZM206.914 46.3516V55H205.469L205.219 53.8359H205.117C204.935 54.1328 204.703 54.3802 204.422 54.5781C204.141 54.7708 203.828 54.9141 203.484 55.0078C203.141 55.1068 202.779 55.1562 202.398 55.1562C201.747 55.1562 201.19 55.0469 200.727 54.8281C200.268 54.6042 199.917 54.2604 199.672 53.7969C199.427 53.3333 199.305 52.7344 199.305 52V46.3516H201.148V51.6562C201.148 52.3281 201.284 52.8307 201.555 53.1641C201.831 53.4974 202.258 53.6641 202.836 53.6641C203.393 53.6641 203.836 53.5495 204.164 53.3203C204.492 53.0911 204.724 52.7526 204.859 52.3047C205 51.8568 205.07 51.3073 205.07 50.6562V46.3516H206.914ZM214.766 53.6719C215.005 53.6719 215.242 53.651 215.477 53.6094C215.711 53.5625 215.924 53.5078 216.117 53.4453V54.8359C215.914 54.9245 215.651 55 215.328 55.0625C215.005 55.125 214.669 55.1562 214.32 55.1562C213.831 55.1562 213.391 55.0755 213 54.9141C212.609 54.7474 212.299 54.4635 212.07 54.0625C211.841 53.6615 211.727 53.1068 211.727 52.3984V47.75H210.547V46.9297L211.812 46.2812L212.414 44.4297H213.57V46.3516H216.047V47.75H213.57V52.375C213.57 52.8125 213.68 53.138 213.898 53.3516C214.117 53.5651 214.406 53.6719 214.766 53.6719ZM221.711 46.3516V55H219.875V46.3516H221.711ZM220.805 43.0391C221.086 43.0391 221.328 43.1146 221.531 43.2656C221.74 43.4167 221.844 43.6771 221.844 44.0469C221.844 44.4115 221.74 44.6719 221.531 44.8281C221.328 44.9792 221.086 45.0547 220.805 45.0547C220.513 45.0547 220.266 44.9792 220.062 44.8281C219.865 44.6719 219.766 44.4115 219.766 44.0469C219.766 43.6771 219.865 43.4167 220.062 43.2656C220.266 43.1146 220.513 43.0391 220.805 43.0391ZM234 50.6562C234 51.375 233.906 52.013 233.719 52.5703C233.531 53.1276 233.258 53.599 232.898 53.9844C232.539 54.3646 232.107 54.6562 231.602 54.8594C231.096 55.0573 230.526 55.1562 229.891 55.1562C229.297 55.1562 228.753 55.0573 228.258 54.8594C227.763 54.6562 227.333 54.3646 226.969 53.9844C226.609 53.599 226.331 53.1276 226.133 52.5703C225.935 52.013 225.836 51.375 225.836 50.6562C225.836 49.7031 226 48.8958 226.328 48.2344C226.661 47.5677 227.135 47.0599 227.75 46.7109C228.365 46.362 229.096 46.1875 229.945 46.1875C230.742 46.1875 231.445 46.362 232.055 46.7109C232.664 47.0599 233.141 47.5677 233.484 48.2344C233.828 48.901 234 49.7083 234 50.6562ZM227.727 50.6562C227.727 51.2865 227.802 51.8255 227.953 52.2734C228.109 52.7214 228.349 53.0651 228.672 53.3047C228.995 53.5391 229.411 53.6562 229.922 53.6562C230.432 53.6562 230.849 53.5391 231.172 53.3047C231.495 53.0651 231.732 52.7214 231.883 52.2734C232.034 51.8255 232.109 51.2865 232.109 50.6562C232.109 50.026 232.034 49.4922 231.883 49.0547C231.732 48.612 231.495 48.276 231.172 48.0469C230.849 47.8125 230.43 47.6953 229.914 47.6953C229.154 47.6953 228.599 47.9505 228.25 48.4609C227.901 48.9714 227.727 49.7031 227.727 50.6562ZM242.617 46.1875C243.591 46.1875 244.349 46.4401 244.891 46.9453C245.438 47.4453 245.711 48.25 245.711 49.3594V55H243.875V49.7031C243.875 49.0312 243.737 48.5286 243.461 48.1953C243.185 47.8568 242.758 47.6875 242.18 47.6875C241.341 47.6875 240.758 47.9453 240.43 48.4609C240.107 48.9766 239.945 49.724 239.945 50.7031V55H238.109V46.3516H239.539L239.797 47.5234H239.898C240.086 47.2214 240.318 46.974 240.594 46.7812C240.875 46.5833 241.188 46.4349 241.531 46.3359C241.88 46.237 242.242 46.1875 242.617 46.1875Z" fill="white"/>
<defs>
<clipPath id="clip0_397_267">
<rect width="83" height="50" fill="white" transform="translate(0 4)"/>
</clipPath>
</defs>
</svg>
